<?xml version="1.0" encoding="utf-8" standalone="no"?>
<!DOCTYPE svg PUBLIC "-//W3C//DTD SVG 1.1//EN"
  "http://www.w3.org/Graphics/SVG/1.1/DTD/svg11.dtd">
<svg xmlns:xlink="http://www.w3.org/1999/xlink" width="1771.013333pt" height="616.521604pt" viewBox="0 0 1771.013333 616.521604" xmlns="http://www.w3.org/2000/svg" version="1.1">
 <metadata>
  <rdf:RDF xmlns:dc="http://purl.org/dc/elements/1.1/" xmlns:cc="http://creativecommons.org/ns#" xmlns:rdf="http://www.w3.org/1999/02/22-rdf-syntax-ns#">
   <cc:Work>
    <dc:type rdf:resource="http://purl.org/dc/dcmitype/StillImage"/>
    <dc:date>2025-11-04T18:49:18.858988</dc:date>
    <dc:format>image/svg+xml</dc:format>
    <dc:creator>
     <cc:Agent>
      <dc:title>Matplotlib v3.10.6, https://matplotlib.org/</dc:title>
     </cc:Agent>
    </dc:creator>
   </cc:Work>
  </rdf:RDF>
 </metadata>
 <defs>
  <style type="text/css">*{stroke-linejoin: round; stroke-linecap: butt}</style>
 </defs>
 <g id="figure_1">
  <g id="patch_1">
   <path d="M 0 616.521604 
L 1771.013333 616.521604 
L 1771.013333 0 
L 0 0 
z
" style="fill: #ffffff"/>
  </g>
  <g id="axes_1">
   <g id="LineCollection_1">
    <path d="M 178.762222 202.384382 
L 74.151111 306.995493 
" clip-path="url(#p3859f65e40)" style="fill: none; stroke: #000000; stroke-width: 3"/>
    <path d="M 178.762222 202.384382 
L 283.373333 306.995493 
" clip-path="url(#p3859f65e40)" style="fill: none; stroke: #000000; stroke-width: 3"/>
    <path d="M 178.762222 202.384382 
L 126.456667 463.91216 
" clip-path="url(#p3859f65e40)" style="fill: none; stroke: #000000; stroke-width: 3"/>
    <path d="M 178.762222 202.384382 
L 231.067778 463.91216 
" clip-path="url(#p3859f65e40)" style="fill: none; stroke: #000000; stroke-width: 3"/>
    <path d="M 74.151111 306.995493 
L 283.373333 306.995493 
" clip-path="url(#p3859f65e40)" style="fill: none; stroke: #000000; stroke-width: 3"/>
    <path d="M 74.151111 306.995493 
L 126.456667 463.91216 
" clip-path="url(#p3859f65e40)" style="fill: none; stroke: #000000; stroke-width: 3"/>
    <path d="M 74.151111 306.995493 
L 231.067778 463.91216 
" clip-path="url(#p3859f65e40)" style="fill: none; stroke: #000000; stroke-width: 3"/>
    <path d="M 283.373333 306.995493 
L 126.456667 463.91216 
" clip-path="url(#p3859f65e40)" style="fill: none; stroke: #000000; stroke-width: 3"/>
    <path d="M 283.373333 306.995493 
L 231.067778 463.91216 
" clip-path="url(#p3859f65e40)" style="fill: none; stroke: #000000; stroke-width: 3"/>
    <path d="M 126.456667 463.91216 
L 231.067778 463.91216 
" clip-path="url(#p3859f65e40)" style="fill: none; stroke: #000000; stroke-width: 3"/>
   </g>
   <g id="PathCollection_1">
    <defs>
     <path id="C0_0_92b183264f" d="M 0 8.660254 
C 2.296726 8.660254 4.499694 7.747755 6.123724 6.123724 
C 7.747755 4.499694 8.660254 2.296726 8.660254 -0 
C 8.660254 -2.296726 7.747755 -4.499694 6.123724 -6.123724 
C 4.499694 -7.747755 2.296726 -8.660254 0 -8.660254 
C -2.296726 -8.660254 -4.499694 -7.747755 -6.123724 -6.123724 
C -7.747755 -4.499694 -8.660254 -2.296726 -8.660254 0 
C -8.660254 2.296726 -7.747755 4.499694 -6.123724 6.123724 
C -4.499694 7.747755 -2.296726 8.660254 0 8.660254 
z
"/>
    </defs>
    <g clip-path="url(#p3859f65e40)">
     <use xlink:href="#C0_0_92b183264f" x="178.762222" y="202.384382" style="stroke: #000000; stroke-width: 3"/>
    </g>
    <g clip-path="url(#p3859f65e40)">
     <use xlink:href="#C0_0_92b183264f" x="74.151111" y="306.995493" style="stroke: #000000; stroke-width: 3"/>
    </g>
    <g clip-path="url(#p3859f65e40)">
     <use xlink:href="#C0_0_92b183264f" x="283.373333" y="306.995493" style="stroke: #000000; stroke-width: 3"/>
    </g>
    <g clip-path="url(#p3859f65e40)">
     <use xlink:href="#C0_0_92b183264f" x="126.456667" y="463.91216" style="stroke: #000000; stroke-width: 3"/>
    </g>
    <g clip-path="url(#p3859f65e40)">
     <use xlink:href="#C0_0_92b183264f" x="231.067778" y="463.91216" style="stroke: #000000; stroke-width: 3"/>
    </g>
   </g>
   <g id="text_1">
    <!-- GQ: 1.00 -->
    <g transform="translate(389.360333 535.964287) scale(0.336 -0.336)">
     <defs>
      <path id="Calibri-47" d="M 3575 3494 
Q 3575 3434 3569 3389 
Q 3563 3344 3550 3314 
Q 3538 3284 3519 3271 
Q 3500 3259 3478 3259 
Q 3441 3259 3353 3318 
Q 3266 3378 3119 3450 
Q 2972 3522 2767 3581 
Q 2563 3641 2281 3641 
Q 1947 3641 1681 3519 
Q 1416 3397 1231 3181 
Q 1047 2966 948 2669 
Q 850 2372 850 2025 
Q 850 1638 958 1338 
Q 1066 1038 1256 831 
Q 1447 625 1711 519 
Q 1975 413 2291 413 
Q 2478 413 2670 458 
Q 2863 503 3028 594 
L 3028 1772 
L 2091 1772 
Q 2038 1772 2011 1825 
Q 1984 1878 1984 1991 
Q 1984 2050 1990 2092 
Q 1997 2134 2011 2161 
Q 2025 2188 2044 2200 
Q 2063 2213 2091 2213 
L 3375 2213 
Q 3409 2213 3443 2200 
Q 3478 2188 3506 2163 
Q 3534 2138 3550 2094 
Q 3566 2050 3566 1994 
L 3566 453 
Q 3566 372 3537 312 
Q 3509 253 3418 208 
Q 3328 163 3184 109 
Q 3041 56 2887 18 
Q 2734 -19 2578 -37 
Q 2422 -56 2269 -56 
Q 1800 -56 1431 89 
Q 1063 234 808 503 
Q 553 772 418 1147 
Q 284 1522 284 1984 
Q 284 2466 429 2856 
Q 575 3247 839 3522 
Q 1103 3797 1473 3948 
Q 1844 4100 2294 4100 
Q 2525 4100 2728 4059 
Q 2931 4019 3089 3964 
Q 3247 3909 3355 3845 
Q 3463 3781 3503 3740 
Q 3544 3700 3559 3647 
Q 3575 3594 3575 3494 
z
" transform="scale(0.015625)"/>
      <path id="Calibri-51" d="M 4422 -356 
Q 4422 -428 4414 -476 
Q 4406 -525 4390 -551 
Q 4375 -578 4356 -587 
Q 4338 -597 4319 -597 
Q 4256 -597 4117 -545 
Q 3978 -494 3797 -395 
Q 3616 -297 3409 -156 
Q 3203 -16 3009 172 
Q 2856 78 2622 9 
Q 2388 -59 2078 -59 
Q 1622 -59 1289 75 
Q 956 209 739 468 
Q 522 728 415 1114 
Q 309 1500 309 2000 
Q 309 2481 425 2870 
Q 541 3259 772 3532 
Q 1003 3806 1350 3954 
Q 1697 4103 2159 4103 
Q 2594 4103 2923 3968 
Q 3253 3834 3476 3576 
Q 3700 3319 3812 2941 
Q 3925 2563 3925 2072 
Q 3925 1819 3895 1587 
Q 3866 1356 3802 1150 
Q 3738 944 3641 769 
Q 3544 594 3413 453 
Q 3641 266 3812 161 
Q 3984 56 4096 3 
Q 4209 -50 4271 -73 
Q 4334 -97 4365 -126 
Q 4397 -156 4409 -211 
Q 4422 -266 4422 -356 
z
M 3359 2034 
Q 3359 2378 3298 2672 
Q 3238 2966 3095 3183 
Q 2953 3400 2715 3522 
Q 2478 3644 2128 3644 
Q 1778 3644 1540 3514 
Q 1303 3384 1154 3164 
Q 1006 2944 942 2653 
Q 878 2363 878 2038 
Q 878 1681 937 1382 
Q 997 1084 1137 865 
Q 1278 647 1514 526 
Q 1750 406 2106 406 
Q 2459 406 2700 537 
Q 2941 669 3087 892 
Q 3234 1116 3296 1411 
Q 3359 1706 3359 2034 
z
" transform="scale(0.015625)"/>
      <path id="Calibri-3a" d="M 1241 2500 
Q 1241 2400 1227 2331 
Q 1213 2263 1173 2220 
Q 1134 2178 1071 2161 
Q 1009 2144 913 2144 
Q 813 2144 750 2161 
Q 688 2178 650 2220 
Q 613 2263 598 2331 
Q 584 2400 584 2500 
Q 584 2606 598 2676 
Q 613 2747 650 2789 
Q 688 2831 750 2848 
Q 813 2866 913 2866 
Q 1009 2866 1071 2848 
Q 1134 2831 1173 2789 
Q 1213 2747 1227 2676 
Q 1241 2606 1241 2500 
z
M 1241 331 
Q 1241 228 1227 159 
Q 1213 91 1173 48 
Q 1134 6 1071 -11 
Q 1009 -28 913 -28 
Q 813 -28 750 -11 
Q 688 6 650 48 
Q 613 91 598 159 
Q 584 228 584 331 
Q 584 434 598 504 
Q 613 575 650 615 
Q 688 656 750 675 
Q 813 694 913 694 
Q 1009 694 1071 675 
Q 1134 656 1173 615 
Q 1213 575 1227 504 
Q 1241 434 1241 331 
z
" transform="scale(0.015625)"/>
      <path id="Calibri-20" transform="scale(0.015625)"/>
      <path id="Calibri-31" d="M 2897 213 
Q 2897 153 2887 112 
Q 2878 72 2862 47 
Q 2847 22 2826 11 
Q 2806 0 2784 0 
L 672 0 
Q 650 0 631 11 
Q 613 22 595 47 
Q 578 72 568 112 
Q 559 153 559 213 
Q 559 269 568 309 
Q 578 350 592 376 
Q 606 403 626 417 
Q 647 431 672 431 
L 1516 431 
L 1516 3506 
L 734 3041 
Q 675 3009 639 3003 
Q 603 2997 581 3017 
Q 559 3038 551 3084 
Q 544 3131 544 3203 
Q 544 3256 548 3293 
Q 553 3331 562 3356 
Q 572 3381 589 3400 
Q 606 3419 634 3438 
L 1566 4034 
Q 1578 4044 1597 4050 
Q 1616 4056 1644 4062 
Q 1672 4069 1709 4070 
Q 1747 4072 1803 4072 
Q 1878 4072 1928 4065 
Q 1978 4059 2006 4048 
Q 2034 4038 2043 4020 
Q 2053 4003 2053 3984 
L 2053 431 
L 2784 431 
Q 2809 431 2831 417 
Q 2853 403 2867 376 
Q 2881 350 2889 309 
Q 2897 269 2897 213 
z
" transform="scale(0.015625)"/>
      <path id="Calibri-2e" d="M 1144 341 
Q 1144 119 1070 45 
Q 997 -28 803 -28 
Q 616 -28 544 44 
Q 472 116 472 331 
Q 472 553 545 626 
Q 619 700 813 700 
Q 1000 700 1072 628 
Q 1144 556 1144 341 
z
" transform="scale(0.015625)"/>
      <path id="Calibri-30" d="M 3022 2031 
Q 3022 1566 2948 1181 
Q 2875 797 2704 520 
Q 2534 244 2259 92 
Q 1984 -59 1581 -59 
Q 1200 -59 939 77 
Q 678 213 518 477 
Q 359 741 292 1127 
Q 225 1513 225 2013 
Q 225 2475 300 2861 
Q 375 3247 544 3523 
Q 713 3800 988 3951 
Q 1263 4103 1663 4103 
Q 2047 4103 2308 3967 
Q 2569 3831 2728 3567 
Q 2888 3303 2955 2917 
Q 3022 2531 3022 2031 
z
M 2472 1994 
Q 2472 2297 2450 2537 
Q 2428 2778 2386 2962 
Q 2344 3147 2276 3280 
Q 2209 3413 2115 3498 
Q 2022 3584 1901 3623 
Q 1781 3663 1631 3663 
Q 1366 3663 1200 3538 
Q 1034 3413 939 3194 
Q 844 2975 809 2681 
Q 775 2388 775 2050 
Q 775 1597 822 1280 
Q 869 963 970 763 
Q 1072 563 1230 472 
Q 1388 381 1613 381 
Q 1788 381 1920 437 
Q 2053 494 2148 598 
Q 2244 703 2306 850 
Q 2369 997 2406 1175 
Q 2444 1353 2458 1561 
Q 2472 1769 2472 1994 
z
" transform="scale(0.015625)"/>
     </defs>
     <use xlink:href="#Calibri-47"/>
     <use xlink:href="#Calibri-51" transform="translate(63.085938 0)"/>
     <use xlink:href="#Calibri-3a" transform="translate(130.371094 0)"/>
     <use xlink:href="#Calibri-20" transform="translate(157.128906 0)"/>
     <use xlink:href="#Calibri-31" transform="translate(179.736328 0)"/>
     <use xlink:href="#Calibri-2e" transform="translate(230.419922 0)"/>
     <use xlink:href="#Calibri-30" transform="translate(255.664062 0)"/>
     <use xlink:href="#Calibri-30" transform="translate(306.347656 0)"/>
    </g>
    <!-- $\overline{\delta_N}$: 2.94 -->
    <g transform="translate(394.085333 578.240437) scale(0.336 -0.336)">
     <defs>
      <path id="DejaVuSans-Oblique-3b4" d="M 3472 4053 
Q 3197 4272 2450 4272 
Q 1659 4272 1588 3906 
Q 1531 3619 2328 3469 
Q 2953 3353 3253 3003 
Q 3616 2581 3447 1716 
Q 3284 888 2763 400 
Q 2238 -91 1488 -91 
Q 741 -91 406 400 
Q 72 888 241 1747 
Q 363 2384 891 2900 
Q 1097 3100 1353 3213 
Q 913 3459 1000 3900 
Q 1166 4750 2544 4750 
Q 3234 4750 3566 4531 
L 3472 4053 
z
M 1753 3056 
Q 1525 2966 1306 2738 
Q 969 2384 847 1747 
Q 722 1113 919 756 
Q 1119 397 1584 397 
Q 2044 397 2381 759 
Q 2722 1122 2838 1716 
Q 2956 2338 2731 2638 
Q 2491 2959 2103 2994 
Q 1906 3013 1753 3056 
z
" transform="scale(0.015625)"/>
      <path id="DejaVuSans-Oblique-4e" d="M 1081 4666 
L 1931 4666 
L 3219 666 
L 4000 4666 
L 4616 4666 
L 3706 0 
L 2853 0 
L 1569 4025 
L 788 0 
L 172 0 
L 1081 4666 
z
" transform="scale(0.015625)"/>
      <path id="Calibri-32" d="M 2888 231 
Q 2888 175 2880 131 
Q 2872 88 2858 58 
Q 2844 28 2820 14 
Q 2797 0 2769 0 
L 534 0 
Q 491 0 458 11 
Q 425 22 401 47 
Q 378 72 367 119 
Q 356 166 356 234 
Q 356 297 361 344 
Q 366 391 381 427 
Q 397 463 420 498 
Q 444 534 481 575 
L 1266 1406 
Q 1538 1694 1702 1922 
Q 1866 2150 1955 2337 
Q 2044 2525 2072 2678 
Q 2100 2831 2100 2966 
Q 2100 3100 2056 3220 
Q 2013 3341 1930 3431 
Q 1847 3522 1722 3575 
Q 1597 3628 1434 3628 
Q 1244 3628 1092 3575 
Q 941 3522 827 3459 
Q 713 3397 636 3344 
Q 559 3291 522 3291 
Q 500 3291 483 3303 
Q 466 3316 455 3344 
Q 444 3372 437 3419 
Q 431 3466 431 3531 
Q 431 3578 434 3612 
Q 438 3647 445 3672 
Q 453 3697 465 3719 
Q 478 3741 515 3773 
Q 553 3806 645 3862 
Q 738 3919 877 3973 
Q 1016 4028 1183 4065 
Q 1350 4103 1534 4103 
Q 1828 4103 2048 4020 
Q 2269 3938 2414 3794 
Q 2559 3650 2631 3459 
Q 2703 3269 2703 3053 
Q 2703 2859 2668 2667 
Q 2634 2475 2523 2251 
Q 2413 2028 2203 1754 
Q 1994 1481 1647 1125 
L 1006 456 
L 2766 456 
Q 2791 456 2814 442 
Q 2838 428 2855 400 
Q 2872 372 2880 330 
Q 2888 288 2888 231 
z
" transform="scale(0.015625)"/>
      <path id="Calibri-39" d="M 2919 2181 
Q 2919 1919 2887 1650 
Q 2856 1381 2781 1132 
Q 2706 884 2579 667 
Q 2453 450 2261 287 
Q 2069 125 1805 33 
Q 1541 -59 1191 -59 
Q 1056 -59 929 -42 
Q 803 -25 701 0 
Q 600 25 531 53 
Q 463 81 431 109 
Q 400 138 386 186 
Q 372 234 372 316 
Q 372 384 376 425 
Q 381 466 390 487 
Q 400 509 417 517 
Q 434 525 459 525 
Q 494 525 556 501 
Q 619 478 714 450 
Q 809 422 937 398 
Q 1066 375 1225 375 
Q 1528 375 1745 492 
Q 1963 609 2100 806 
Q 2238 1003 2306 1262 
Q 2375 1522 2381 1809 
Q 2216 1713 1984 1638 
Q 1753 1563 1453 1563 
Q 1116 1563 886 1655 
Q 656 1747 517 1906 
Q 378 2066 317 2284 
Q 256 2503 256 2763 
Q 256 3031 334 3273 
Q 413 3516 578 3700 
Q 744 3884 1000 3993 
Q 1256 4103 1613 4103 
Q 1866 4103 2061 4039 
Q 2256 3975 2400 3854 
Q 2544 3734 2644 3564 
Q 2744 3394 2805 3178 
Q 2866 2963 2892 2711 
Q 2919 2459 2919 2181 
z
M 2372 2241 
Q 2372 2641 2319 2914 
Q 2266 3188 2162 3356 
Q 2059 3525 1909 3600 
Q 1759 3675 1563 3675 
Q 1359 3675 1215 3601 
Q 1072 3528 980 3404 
Q 888 3281 844 3125 
Q 800 2969 800 2803 
Q 800 2619 839 2466 
Q 878 2313 965 2206 
Q 1053 2100 1193 2042 
Q 1334 1984 1541 1984 
Q 1775 1984 1994 2054 
Q 2213 2125 2372 2241 
z
" transform="scale(0.015625)"/>
      <path id="Calibri-34" d="M 3059 1150 
Q 3059 1047 3028 987 
Q 2997 928 2941 928 
L 2484 928 
L 2484 78 
Q 2484 53 2471 36 
Q 2459 19 2428 6 
Q 2397 -6 2347 -12 
Q 2297 -19 2219 -19 
Q 2144 -19 2094 -12 
Q 2044 -6 2014 6 
Q 1984 19 1973 36 
Q 1963 53 1963 78 
L 1963 928 
L 294 928 
Q 256 928 231 937 
Q 206 947 186 972 
Q 166 997 158 1044 
Q 150 1091 150 1166 
Q 150 1225 153 1272 
Q 156 1319 165 1358 
Q 175 1397 190 1433 
Q 206 1469 228 1509 
L 1684 3966 
Q 1700 3991 1729 4009 
Q 1759 4028 1806 4040 
Q 1853 4053 1922 4058 
Q 1991 4063 2084 4063 
Q 2188 4063 2264 4055 
Q 2341 4047 2387 4034 
Q 2434 4022 2459 4001 
Q 2484 3981 2484 3953 
L 2484 1372 
L 2941 1372 
Q 2994 1372 3026 1317 
Q 3059 1263 3059 1150 
z
M 1963 3591 
L 1956 3591 
L 641 1372 
L 1963 1372 
L 1963 3591 
z
" transform="scale(0.015625)"/>
     </defs>
     <use xlink:href="#DejaVuSans-Oblique-3b4" transform="translate(0 0.53125)"/>
     <use xlink:href="#DejaVuSans-Oblique-4e" transform="translate(61.181641 -15.875) scale(0.7)"/>
     <use xlink:href="#Calibri-3a" transform="translate(116.279297 0.03125)"/>
     <use xlink:href="#Calibri-20" transform="translate(143.037109 0.03125)"/>
     <use xlink:href="#Calibri-32" transform="translate(165.644531 0.03125)"/>
     <use xlink:href="#Calibri-2e" transform="translate(216.328125 0.03125)"/>
     <use xlink:href="#Calibri-39" transform="translate(241.572266 0.03125)"/>
     <use xlink:href="#Calibri-34" transform="translate(292.255859 0.03125)"/>
     <path d="M 0 86.5 
L 0 92.75 
L 116.279297 92.75 
L 116.279297 86.5 
L 0 86.5 
z
"/>
    </g>
   </g>
   <g id="patch_2">
    <path d="M 32.306667 609.321604 
L 534.44 609.321604 
Q 559.546667 609.321604 559.546667 584.214937 
L 559.546667 82.081604 
Q 559.546667 56.974937 534.44 56.974937 
L 32.306667 56.974937 
Q 7.2 56.974937 7.2 82.081604 
L 7.2 584.214937 
Q 7.2 609.321604 32.306667 609.321604 
L 32.306667 609.321604 
z
" style="fill: none; stroke: #000000; stroke-width: 4.5"/>
   </g>
   <g id="text_2">
    <!-- crEG$_4$ with 5 vertices -->
    <g transform="translate(104.033333 35.910937) scale(0.42 -0.42)">
     <defs>
      <path id="Calibri-63" d="M 2500 506 
Q 2500 453 2497 414 
Q 2494 375 2486 348 
Q 2478 322 2467 301 
Q 2456 281 2417 242 
Q 2378 203 2284 145 
Q 2191 88 2073 42 
Q 1956 -3 1818 -31 
Q 1681 -59 1534 -59 
Q 1231 -59 997 41 
Q 763 141 605 333 
Q 447 525 364 804 
Q 281 1084 281 1450 
Q 281 1866 382 2164 
Q 484 2463 661 2653 
Q 838 2844 1077 2936 
Q 1316 3028 1594 3028 
Q 1728 3028 1854 3003 
Q 1981 2978 2087 2937 
Q 2194 2897 2276 2844 
Q 2359 2791 2396 2753 
Q 2434 2716 2448 2694 
Q 2463 2672 2472 2642 
Q 2481 2613 2484 2575 
Q 2488 2538 2488 2481 
Q 2488 2359 2459 2311 
Q 2431 2263 2391 2263 
Q 2344 2263 2283 2314 
Q 2222 2366 2128 2428 
Q 2034 2491 1901 2542 
Q 1769 2594 1588 2594 
Q 1216 2594 1017 2308 
Q 819 2022 819 1478 
Q 819 1206 870 1001 
Q 922 797 1022 659 
Q 1122 522 1267 455 
Q 1413 388 1600 388 
Q 1778 388 1912 444 
Q 2047 500 2145 567 
Q 2244 634 2311 689 
Q 2378 744 2416 744 
Q 2438 744 2453 731 
Q 2469 719 2480 689 
Q 2491 659 2495 614 
Q 2500 569 2500 506 
z
" transform="scale(0.015625)"/>
      <path id="Calibri-72" d="M 2122 2706 
Q 2122 2638 2119 2591 
Q 2116 2544 2106 2517 
Q 2097 2491 2083 2477 
Q 2069 2463 2044 2463 
Q 2019 2463 1983 2477 
Q 1947 2491 1901 2505 
Q 1856 2519 1800 2531 
Q 1744 2544 1678 2544 
Q 1600 2544 1525 2512 
Q 1450 2481 1367 2409 
Q 1284 2338 1193 2219 
Q 1103 2100 994 1928 
L 994 78 
Q 994 53 981 36 
Q 969 19 941 6 
Q 913 -6 863 -12 
Q 813 -19 734 -19 
Q 659 -19 609 -12 
Q 559 -6 529 6 
Q 500 19 489 36 
Q 478 53 478 78 
L 478 2891 
Q 478 2916 487 2933 
Q 497 2950 525 2964 
Q 553 2978 597 2983 
Q 641 2988 713 2988 
Q 781 2988 826 2983 
Q 872 2978 897 2964 
Q 922 2950 933 2933 
Q 944 2916 944 2891 
L 944 2481 
Q 1059 2650 1161 2756 
Q 1263 2863 1353 2923 
Q 1444 2984 1533 3007 
Q 1622 3031 1713 3031 
Q 1753 3031 1804 3026 
Q 1856 3022 1912 3009 
Q 1969 2997 2014 2981 
Q 2059 2966 2078 2950 
Q 2097 2934 2103 2920 
Q 2109 2906 2114 2884 
Q 2119 2863 2120 2820 
Q 2122 2778 2122 2706 
z
" transform="scale(0.015625)"/>
      <path id="Calibri-45" d="M 2788 222 
Q 2788 166 2781 123 
Q 2775 81 2759 53 
Q 2744 25 2723 12 
Q 2703 0 2678 0 
L 738 0 
Q 666 0 602 48 
Q 538 97 538 219 
L 538 3825 
Q 538 3947 602 3995 
Q 666 4044 738 4044 
L 2656 4044 
Q 2681 4044 2701 4031 
Q 2722 4019 2734 3991 
Q 2747 3963 2755 3920 
Q 2763 3878 2763 3816 
Q 2763 3759 2755 3717 
Q 2747 3675 2734 3648 
Q 2722 3622 2701 3609 
Q 2681 3597 2656 3597 
L 1075 3597 
L 1075 2328 
L 2431 2328 
Q 2456 2328 2476 2314 
Q 2497 2300 2511 2275 
Q 2525 2250 2531 2206 
Q 2538 2163 2538 2103 
Q 2538 2047 2531 2006 
Q 2525 1966 2511 1941 
Q 2497 1916 2476 1905 
Q 2456 1894 2431 1894 
L 1075 1894 
L 1075 447 
L 2678 447 
Q 2703 447 2723 434 
Q 2744 422 2759 395 
Q 2775 369 2781 326 
Q 2788 284 2788 222 
z
" transform="scale(0.015625)"/>
      <path id="DejaVuSans-34" d="M 2419 4116 
L 825 1625 
L 2419 1625 
L 2419 4116 
z
M 2253 4666 
L 3047 4666 
L 3047 1625 
L 3713 1625 
L 3713 1100 
L 3047 1100 
L 3047 0 
L 2419 0 
L 2419 1100 
L 313 1100 
L 313 1709 
L 2253 4666 
z
" transform="scale(0.015625)"/>
      <path id="Calibri-77" d="M 4413 2897 
Q 4413 2875 4406 2844 
Q 4400 2813 4384 2766 
L 3556 94 
Q 3547 59 3526 37 
Q 3506 16 3470 3 
Q 3434 -9 3371 -14 
Q 3309 -19 3216 -19 
Q 3119 -19 3053 -12 
Q 2988 -6 2948 6 
Q 2909 19 2890 41 
Q 2872 63 2863 94 
L 2272 2134 
L 2266 2163 
L 2259 2134 
L 1713 94 
Q 1703 59 1683 37 
Q 1663 16 1622 3 
Q 1581 -9 1517 -14 
Q 1453 -19 1359 -19 
Q 1263 -19 1202 -12 
Q 1141 -6 1102 6 
Q 1063 19 1044 41 
Q 1025 63 1016 94 
L 194 2766 
Q 178 2813 172 2844 
Q 166 2875 166 2897 
Q 166 2925 178 2942 
Q 191 2959 220 2970 
Q 250 2981 300 2984 
Q 350 2988 422 2988 
Q 509 2988 562 2983 
Q 616 2978 644 2967 
Q 672 2956 684 2936 
Q 697 2916 706 2888 
L 1384 569 
L 1391 541 
L 1397 569 
L 2019 2888 
Q 2025 2916 2039 2936 
Q 2053 2956 2081 2967 
Q 2109 2978 2157 2983 
Q 2206 2988 2284 2988 
Q 2359 2988 2407 2983 
Q 2456 2978 2484 2967 
Q 2513 2956 2525 2937 
Q 2538 2919 2544 2894 
L 3216 569 
L 3222 541 
L 3225 569 
L 3894 2888 
Q 3900 2916 3914 2936 
Q 3928 2956 3958 2967 
Q 3988 2978 4039 2983 
Q 4091 2988 4172 2988 
Q 4247 2988 4292 2984 
Q 4338 2981 4364 2968 
Q 4391 2956 4402 2940 
Q 4413 2925 4413 2897 
z
" transform="scale(0.015625)"/>
      <path id="Calibri-69" d="M 994 78 
Q 994 53 981 36 
Q 969 19 941 6 
Q 913 -6 863 -12 
Q 813 -19 734 -19 
Q 659 -19 609 -12 
Q 559 -6 529 6 
Q 500 19 489 36 
Q 478 53 478 78 
L 478 2891 
Q 478 2913 489 2931 
Q 500 2950 529 2962 
Q 559 2975 609 2981 
Q 659 2988 734 2988 
Q 813 2988 863 2981 
Q 913 2975 941 2962 
Q 969 2950 981 2931 
Q 994 2913 994 2891 
L 994 78 
z
M 1053 3841 
Q 1053 3659 984 3593 
Q 916 3528 731 3528 
Q 550 3528 483 3592 
Q 416 3656 416 3834 
Q 416 4016 484 4081 
Q 553 4147 738 4147 
Q 919 4147 986 4083 
Q 1053 4019 1053 3841 
z
" transform="scale(0.015625)"/>
      <path id="Calibri-74" d="M 1941 284 
Q 1941 194 1928 141 
Q 1916 88 1891 63 
Q 1866 38 1816 16 
Q 1766 -6 1702 -20 
Q 1638 -34 1566 -43 
Q 1494 -53 1422 -53 
Q 1203 -53 1047 5 
Q 891 63 791 180 
Q 691 297 645 476 
Q 600 656 600 900 
L 600 2544 
L 206 2544 
Q 159 2544 131 2594 
Q 103 2644 103 2756 
Q 103 2816 111 2856 
Q 119 2897 131 2923 
Q 144 2950 164 2961 
Q 184 2972 209 2972 
L 600 2972 
L 600 3641 
Q 600 3663 611 3681 
Q 622 3700 651 3714 
Q 681 3728 731 3734 
Q 781 3741 856 3741 
Q 934 3741 984 3734 
Q 1034 3728 1062 3714 
Q 1091 3700 1103 3681 
Q 1116 3663 1116 3641 
L 1116 2972 
L 1838 2972 
Q 1863 2972 1881 2961 
Q 1900 2950 1914 2923 
Q 1928 2897 1934 2856 
Q 1941 2816 1941 2756 
Q 1941 2644 1912 2594 
Q 1884 2544 1838 2544 
L 1116 2544 
L 1116 975 
Q 1116 684 1202 536 
Q 1288 388 1509 388 
Q 1581 388 1637 402 
Q 1694 416 1737 431 
Q 1781 447 1812 461 
Q 1844 475 1869 475 
Q 1884 475 1898 467 
Q 1913 459 1920 437 
Q 1928 416 1934 378 
Q 1941 341 1941 284 
z
" transform="scale(0.015625)"/>
      <path id="Calibri-68" d="M 2900 78 
Q 2900 53 2887 36 
Q 2875 19 2847 6 
Q 2819 -6 2769 -12 
Q 2719 -19 2644 -19 
Q 2566 -19 2516 -12 
Q 2466 -6 2437 6 
Q 2409 19 2396 36 
Q 2384 53 2384 78 
L 2384 1725 
Q 2384 1966 2346 2112 
Q 2309 2259 2237 2365 
Q 2166 2472 2052 2528 
Q 1938 2584 1788 2584 
Q 1594 2584 1400 2446 
Q 1206 2309 994 2044 
L 994 78 
Q 994 53 981 36 
Q 969 19 941 6 
Q 913 -6 863 -12 
Q 813 -19 734 -19 
Q 659 -19 609 -12 
Q 559 -6 529 6 
Q 500 19 489 36 
Q 478 53 478 78 
L 478 4253 
Q 478 4278 489 4297 
Q 500 4316 529 4328 
Q 559 4341 609 4347 
Q 659 4353 734 4353 
Q 813 4353 863 4347 
Q 913 4341 941 4328 
Q 969 4316 981 4297 
Q 994 4278 994 4253 
L 994 2569 
Q 1216 2803 1441 2917 
Q 1666 3031 1894 3031 
Q 2175 3031 2367 2936 
Q 2559 2841 2678 2681 
Q 2797 2522 2848 2308 
Q 2900 2094 2900 1791 
L 2900 78 
z
" transform="scale(0.015625)"/>
      <path id="Calibri-35" d="M 2869 1300 
Q 2869 975 2759 722 
Q 2650 469 2450 295 
Q 2250 122 1973 31 
Q 1697 -59 1359 -59 
Q 1172 -59 1003 -32 
Q 834 -6 703 33 
Q 572 72 487 109 
Q 403 147 379 169 
Q 356 191 347 209 
Q 338 228 330 254 
Q 322 281 319 322 
Q 316 363 316 419 
Q 316 472 320 514 
Q 325 556 337 582 
Q 350 609 367 621 
Q 384 634 406 634 
Q 438 634 503 595 
Q 569 556 680 511 
Q 791 466 955 425 
Q 1119 384 1344 384 
Q 1553 384 1728 434 
Q 1903 484 2029 590 
Q 2156 697 2228 858 
Q 2300 1019 2300 1250 
Q 2300 1444 2239 1592 
Q 2178 1741 2051 1839 
Q 1925 1938 1731 1986 
Q 1538 2034 1269 2034 
Q 1078 2034 940 2015 
Q 803 1997 684 1997 
Q 597 1997 559 2037 
Q 522 2078 522 2194 
L 522 3841 
Q 522 3944 570 3994 
Q 619 4044 709 4044 
L 2500 4044 
Q 2525 4044 2548 4030 
Q 2572 4016 2587 3987 
Q 2603 3959 2611 3915 
Q 2619 3872 2619 3813 
Q 2619 3700 2587 3637 
Q 2556 3575 2500 3575 
L 991 3575 
L 991 2441 
Q 1100 2456 1214 2459 
Q 1328 2463 1478 2463 
Q 1825 2463 2084 2380 
Q 2344 2297 2517 2145 
Q 2691 1994 2780 1778 
Q 2869 1563 2869 1300 
z
" transform="scale(0.015625)"/>
      <path id="Calibri-76" d="M 2784 2897 
Q 2784 2884 2782 2870 
Q 2781 2856 2778 2840 
Q 2775 2825 2770 2806 
Q 2766 2788 2759 2766 
L 1800 94 
Q 1788 59 1767 37 
Q 1747 16 1706 3 
Q 1666 -9 1603 -14 
Q 1541 -19 1447 -19 
Q 1353 -19 1290 -12 
Q 1228 -6 1189 6 
Q 1150 19 1128 41 
Q 1106 63 1094 94 
L 138 2766 
Q 125 2803 117 2831 
Q 109 2859 107 2873 
Q 106 2888 106 2897 
Q 106 2922 118 2940 
Q 131 2959 161 2970 
Q 191 2981 239 2984 
Q 288 2988 359 2988 
Q 450 2988 504 2983 
Q 559 2978 589 2965 
Q 619 2953 633 2934 
Q 647 2916 659 2888 
L 1453 569 
L 1466 531 
L 1475 569 
L 2259 2888 
Q 2266 2916 2281 2934 
Q 2297 2953 2326 2965 
Q 2356 2978 2407 2983 
Q 2459 2988 2544 2988 
Q 2616 2988 2662 2984 
Q 2709 2981 2736 2968 
Q 2763 2956 2773 2939 
Q 2784 2922 2784 2897 
z
" transform="scale(0.015625)"/>
      <path id="Calibri-65" d="M 2878 1606 
Q 2878 1484 2817 1432 
Q 2756 1381 2678 1381 
L 834 1381 
Q 834 1147 881 959 
Q 928 772 1037 637 
Q 1147 503 1322 431 
Q 1497 359 1750 359 
Q 1950 359 2106 392 
Q 2263 425 2377 465 
Q 2491 506 2564 539 
Q 2638 572 2675 572 
Q 2697 572 2714 561 
Q 2731 550 2740 528 
Q 2750 506 2754 467 
Q 2759 428 2759 372 
Q 2759 331 2756 301 
Q 2753 272 2748 248 
Q 2744 225 2733 206 
Q 2722 188 2705 170 
Q 2688 153 2603 114 
Q 2519 75 2384 37 
Q 2250 0 2073 -29 
Q 1897 -59 1697 -59 
Q 1350 -59 1089 37 
Q 828 134 650 325 
Q 472 516 381 803 
Q 291 1091 291 1472 
Q 291 1834 384 2123 
Q 478 2413 654 2614 
Q 831 2816 1081 2923 
Q 1331 3031 1641 3031 
Q 1972 3031 2205 2925 
Q 2438 2819 2588 2639 
Q 2738 2459 2808 2217 
Q 2878 1975 2878 1700 
L 2878 1606 
z
M 2359 1759 
Q 2369 2166 2180 2397 
Q 1991 2628 1619 2628 
Q 1428 2628 1284 2556 
Q 1141 2484 1044 2365 
Q 947 2247 894 2089 
Q 841 1931 834 1759 
L 2359 1759 
z
" transform="scale(0.015625)"/>
      <path id="Calibri-73" d="M 2244 844 
Q 2244 628 2164 459 
Q 2084 291 1937 175 
Q 1791 59 1587 0 
Q 1384 -59 1141 -59 
Q 991 -59 855 -36 
Q 719 -13 611 23 
Q 503 59 428 98 
Q 353 138 318 169 
Q 284 200 268 256 
Q 253 313 253 409 
Q 253 469 259 509 
Q 266 550 275 575 
Q 284 600 301 611 
Q 319 622 341 622 
Q 375 622 442 580 
Q 509 538 607 488 
Q 706 438 840 395 
Q 975 353 1150 353 
Q 1281 353 1387 381 
Q 1494 409 1572 464 
Q 1650 519 1692 603 
Q 1734 688 1734 803 
Q 1734 922 1673 1003 
Q 1613 1084 1513 1146 
Q 1413 1209 1288 1257 
Q 1163 1306 1030 1359 
Q 897 1413 770 1480 
Q 644 1547 544 1644 
Q 444 1741 383 1875 
Q 322 2009 322 2197 
Q 322 2363 386 2514 
Q 450 2666 578 2780 
Q 706 2894 898 2962 
Q 1091 3031 1347 3031 
Q 1459 3031 1571 3012 
Q 1684 2994 1775 2966 
Q 1866 2938 1930 2905 
Q 1994 2872 2026 2847 
Q 2059 2822 2070 2803 
Q 2081 2784 2086 2761 
Q 2091 2738 2095 2703 
Q 2100 2669 2100 2619 
Q 2100 2566 2095 2527 
Q 2091 2488 2080 2463 
Q 2069 2438 2053 2427 
Q 2038 2416 2019 2416 
Q 1991 2416 1937 2450 
Q 1884 2484 1800 2523 
Q 1716 2563 1602 2597 
Q 1488 2631 1341 2631 
Q 1209 2631 1109 2601 
Q 1009 2572 945 2517 
Q 881 2463 848 2388 
Q 816 2313 816 2225 
Q 816 2103 878 2020 
Q 941 1938 1041 1875 
Q 1141 1813 1269 1763 
Q 1397 1713 1530 1659 
Q 1663 1606 1792 1540 
Q 1922 1475 2022 1381 
Q 2122 1288 2183 1156 
Q 2244 1025 2244 844 
z
" transform="scale(0.015625)"/>
     </defs>
     <use xlink:href="#Calibri-63" transform="translate(0 0.984375)"/>
     <use xlink:href="#Calibri-72" transform="translate(42.285156 0.984375)"/>
     <use xlink:href="#Calibri-45" transform="translate(77.148438 0.984375)"/>
     <use xlink:href="#Calibri-47" transform="translate(125.976562 0.984375)"/>
     <use xlink:href="#DejaVuSans-34" transform="translate(190.019531 -15.421875) scale(0.7)"/>
     <use xlink:href="#Calibri-20" transform="translate(237.290039 0.984375)"/>
     <use xlink:href="#Calibri-77" transform="translate(259.897461 0.984375)"/>
     <use xlink:href="#Calibri-69" transform="translate(331.381836 0.984375)"/>
     <use xlink:href="#Calibri-74" transform="translate(354.331055 0.984375)"/>
     <use xlink:href="#Calibri-68" transform="translate(387.827148 0.984375)"/>
     <use xlink:href="#Calibri-20" transform="translate(440.366211 0.984375)"/>
     <use xlink:href="#Calibri-35" transform="translate(462.973633 0.984375)"/>
     <use xlink:href="#Calibri-20" transform="translate(513.657227 0.984375)"/>
     <use xlink:href="#Calibri-76" transform="translate(536.264648 0.984375)"/>
     <use xlink:href="#Calibri-65" transform="translate(581.430664 0.984375)"/>
     <use xlink:href="#Calibri-72" transform="translate(631.186523 0.984375)"/>
     <use xlink:href="#Calibri-74" transform="translate(666.049805 0.984375)"/>
     <use xlink:href="#Calibri-69" transform="translate(699.545898 0.984375)"/>
     <use xlink:href="#Calibri-63" transform="translate(722.495117 0.984375)"/>
     <use xlink:href="#Calibri-65" transform="translate(764.780273 0.984375)"/>
     <use xlink:href="#Calibri-73" transform="translate(814.536133 0.984375)"/>
    </g>
   </g>
  </g>
  <g id="axes_2">
   <g id="LineCollection_2">
    <path d="M 780.895556 202.384382 
L 676.284444 306.995493 
" clip-path="url(#p2b27d502e7)" style="fill: none; stroke: #000000; stroke-width: 3"/>
    <path d="M 780.895556 202.384382 
L 728.59 463.91216 
" clip-path="url(#p2b27d502e7)" style="fill: none; stroke: #000000; stroke-width: 3"/>
    <path d="M 780.895556 202.384382 
L 833.201111 463.91216 
" clip-path="url(#p2b27d502e7)" style="fill: none; stroke: #000000; stroke-width: 3"/>
    <path d="M 676.284444 306.995493 
L 885.506667 306.995493 
" clip-path="url(#p2b27d502e7)" style="fill: none; stroke: #000000; stroke-width: 3"/>
    <path d="M 676.284444 306.995493 
L 728.59 463.91216 
" clip-path="url(#p2b27d502e7)" style="fill: none; stroke: #000000; stroke-width: 3"/>
    <path d="M 676.284444 306.995493 
L 833.201111 463.91216 
" clip-path="url(#p2b27d502e7)" style="fill: none; stroke: #000000; stroke-width: 3"/>
    <path d="M 885.506667 306.995493 
L 728.59 463.91216 
" clip-path="url(#p2b27d502e7)" style="fill: none; stroke: #000000; stroke-width: 3"/>
    <path d="M 885.506667 306.995493 
L 833.201111 463.91216 
" clip-path="url(#p2b27d502e7)" style="fill: none; stroke: #000000; stroke-width: 3"/>
   </g>
   <g id="LineCollection_3">
    <path d="M 780.895556 202.384382 
L 885.506667 306.995493 
" clip-path="url(#p2b27d502e7)" style="fill: none; stroke-dasharray: 11.1,4.8; stroke-dashoffset: 0; stroke: #ff0000; stroke-width: 3"/>
    <path d="M 728.59 463.91216 
L 833.201111 463.91216 
" clip-path="url(#p2b27d502e7)" style="fill: none; stroke-dasharray: 11.1,4.8; stroke-dashoffset: 0; stroke: #ff0000; stroke-width: 3"/>
   </g>
   <g id="LineCollection_4">
    <path d="M 1094.728889 333.148271 
L 780.895556 202.384382 
" clip-path="url(#p2b27d502e7)" style="fill: none; stroke: #92d050; stroke-width: 3"/>
    <path d="M 1094.728889 333.148271 
L 885.506667 306.995493 
" clip-path="url(#p2b27d502e7)" style="fill: none; stroke: #92d050; stroke-width: 3"/>
    <path d="M 1094.728889 333.148271 
L 728.59 463.91216 
" clip-path="url(#p2b27d502e7)" style="fill: none; stroke: #92d050; stroke-width: 3"/>
    <path d="M 1094.728889 333.148271 
L 833.201111 463.91216 
" clip-path="url(#p2b27d502e7)" style="fill: none; stroke: #92d050; stroke-width: 3"/>
   </g>
   <g id="PathCollection_2">
    <defs>
     <path id="C1_0_ac42631a68" d="M 0 8.660254 
C 2.296726 8.660254 4.499694 7.747755 6.123724 6.123724 
C 7.747755 4.499694 8.660254 2.296726 8.660254 -0 
C 8.660254 -2.296726 7.747755 -4.499694 6.123724 -6.123724 
C 4.499694 -7.747755 2.296726 -8.660254 0 -8.660254 
C -2.296726 -8.660254 -4.499694 -7.747755 -6.123724 -6.123724 
C -7.747755 -4.499694 -8.660254 -2.296726 -8.660254 0 
C -8.660254 2.296726 -7.747755 4.499694 -6.123724 6.123724 
C -4.499694 7.747755 -2.296726 8.660254 0 8.660254 
z
"/>
    </defs>
    <g clip-path="url(#p2b27d502e7)">
     <use xlink:href="#C1_0_ac42631a68" x="780.895556" y="202.384382" style="stroke: #000000; stroke-width: 3"/>
    </g>
    <g clip-path="url(#p2b27d502e7)">
     <use xlink:href="#C1_0_ac42631a68" x="676.284444" y="306.995493" style="stroke: #000000; stroke-width: 3"/>
    </g>
    <g clip-path="url(#p2b27d502e7)">
     <use xlink:href="#C1_0_ac42631a68" x="885.506667" y="306.995493" style="stroke: #000000; stroke-width: 3"/>
    </g>
    <g clip-path="url(#p2b27d502e7)">
     <use xlink:href="#C1_0_ac42631a68" x="728.59" y="463.91216" style="stroke: #000000; stroke-width: 3"/>
    </g>
    <g clip-path="url(#p2b27d502e7)">
     <use xlink:href="#C1_0_ac42631a68" x="833.201111" y="463.91216" style="stroke: #000000; stroke-width: 3"/>
    </g>
    <g clip-path="url(#p2b27d502e7)">
     <use xlink:href="#C1_0_ac42631a68" x="1094.728889" y="333.148271" style="fill: #92d050; stroke: #000000; stroke-width: 3"/>
    </g>
   </g>
   <g id="text_3">
    <!-- GQ: 0.83 -->
    <g transform="translate(991.493667 535.964287) scale(0.336 -0.336)">
     <defs>
      <path id="Calibri-38" d="M 2981 1038 
Q 2981 775 2887 570 
Q 2794 366 2617 225 
Q 2441 84 2181 12 
Q 1922 -59 1588 -59 
Q 1275 -59 1028 6 
Q 781 72 609 200 
Q 438 328 347 515 
Q 256 703 256 944 
Q 256 1134 318 1293 
Q 381 1453 498 1587 
Q 616 1722 787 1839 
Q 959 1956 1175 2063 
Q 988 2159 844 2267 
Q 700 2375 600 2501 
Q 500 2628 448 2772 
Q 397 2916 397 3084 
Q 397 3297 473 3483 
Q 550 3669 704 3806 
Q 859 3944 1098 4023 
Q 1338 4103 1656 4103 
Q 1963 4103 2186 4029 
Q 2409 3956 2554 3829 
Q 2700 3703 2769 3531 
Q 2838 3359 2838 3163 
Q 2838 3003 2786 2856 
Q 2734 2709 2634 2578 
Q 2534 2447 2389 2333 
Q 2244 2219 2056 2119 
Q 2278 2009 2451 1893 
Q 2625 1778 2742 1645 
Q 2859 1513 2920 1364 
Q 2981 1216 2981 1038 
z
M 2306 3113 
Q 2306 3244 2261 3350 
Q 2216 3456 2128 3531 
Q 2041 3606 1911 3645 
Q 1781 3684 1616 3684 
Q 1278 3684 1104 3531 
Q 931 3378 931 3113 
Q 931 2991 973 2886 
Q 1016 2781 1105 2687 
Q 1194 2594 1330 2505 
Q 1466 2416 1653 2319 
Q 1969 2481 2137 2678 
Q 2306 2875 2306 3113 
z
M 2438 981 
Q 2438 1125 2384 1242 
Q 2331 1359 2223 1461 
Q 2116 1563 1955 1658 
Q 1794 1753 1581 1856 
Q 1384 1759 1236 1662 
Q 1088 1566 992 1462 
Q 897 1359 848 1245 
Q 800 1131 800 994 
Q 800 691 1008 525 
Q 1216 359 1628 359 
Q 2028 359 2233 526 
Q 2438 694 2438 981 
z
" transform="scale(0.015625)"/>
      <path id="Calibri-33" d="M 2856 1156 
Q 2856 878 2759 654 
Q 2663 431 2481 272 
Q 2300 113 2034 27 
Q 1769 -59 1434 -59 
Q 1231 -59 1054 -26 
Q 878 6 740 51 
Q 603 97 512 145 
Q 422 194 398 216 
Q 375 238 362 259 
Q 350 281 340 312 
Q 331 344 326 389 
Q 322 434 322 500 
Q 322 613 344 656 
Q 366 700 406 700 
Q 434 700 517 650 
Q 600 600 729 542 
Q 859 484 1032 434 
Q 1206 384 1419 384 
Q 1625 384 1781 437 
Q 1938 491 2044 587 
Q 2150 684 2203 817 
Q 2256 950 2256 1106 
Q 2256 1278 2189 1415 
Q 2122 1553 1992 1653 
Q 1863 1753 1673 1806 
Q 1484 1859 1244 1859 
L 859 1859 
Q 834 1859 811 1870 
Q 788 1881 770 1906 
Q 753 1931 742 1972 
Q 731 2013 731 2078 
Q 731 2138 740 2177 
Q 750 2216 767 2239 
Q 784 2263 806 2273 
Q 828 2284 856 2284 
L 1209 2284 
Q 1416 2284 1580 2337 
Q 1744 2391 1858 2491 
Q 1972 2591 2033 2730 
Q 2094 2869 2094 3041 
Q 2094 3166 2053 3280 
Q 2013 3394 1931 3478 
Q 1850 3563 1723 3611 
Q 1597 3659 1431 3659 
Q 1250 3659 1098 3604 
Q 947 3550 828 3487 
Q 709 3425 631 3370 
Q 553 3316 522 3316 
Q 500 3316 483 3323 
Q 466 3331 455 3354 
Q 444 3378 439 3420 
Q 434 3463 434 3531 
Q 434 3578 437 3614 
Q 441 3650 450 3676 
Q 459 3703 471 3725 
Q 484 3747 514 3776 
Q 544 3806 634 3862 
Q 725 3919 858 3973 
Q 991 4028 1164 4065 
Q 1338 4103 1538 4103 
Q 1819 4103 2031 4031 
Q 2244 3959 2386 3828 
Q 2528 3697 2598 3514 
Q 2669 3331 2669 3109 
Q 2669 2919 2619 2755 
Q 2569 2591 2472 2464 
Q 2375 2338 2234 2248 
Q 2094 2159 1909 2125 
L 1909 2119 
Q 2119 2097 2292 2014 
Q 2466 1931 2591 1806 
Q 2716 1681 2786 1514 
Q 2856 1347 2856 1156 
z
" transform="scale(0.015625)"/>
     </defs>
     <use xlink:href="#Calibri-47"/>
     <use xlink:href="#Calibri-51" transform="translate(63.085938 0)"/>
     <use xlink:href="#Calibri-3a" transform="translate(130.371094 0)"/>
     <use xlink:href="#Calibri-20" transform="translate(157.128906 0)"/>
     <use xlink:href="#Calibri-30" transform="translate(179.736328 0)"/>
     <use xlink:href="#Calibri-2e" transform="translate(230.419922 0)"/>
     <use xlink:href="#Calibri-38" transform="translate(255.664062 0)"/>
     <use xlink:href="#Calibri-33" transform="translate(306.347656 0)"/>
    </g>
    <!-- $\overline{\delta_N}$: 4.51 -->
    <g transform="translate(996.218667 578.240437) scale(0.336 -0.336)">
     <use xlink:href="#DejaVuSans-Oblique-3b4" transform="translate(0 0.53125)"/>
     <use xlink:href="#DejaVuSans-Oblique-4e" transform="translate(61.181641 -15.875) scale(0.7)"/>
     <use xlink:href="#Calibri-3a" transform="translate(116.279297 0.03125)"/>
     <use xlink:href="#Calibri-20" transform="translate(143.037109 0.03125)"/>
     <use xlink:href="#Calibri-34" transform="translate(165.644531 0.03125)"/>
     <use xlink:href="#Calibri-2e" transform="translate(216.328125 0.03125)"/>
     <use xlink:href="#Calibri-35" transform="translate(241.572266 0.03125)"/>
     <use xlink:href="#Calibri-31" transform="translate(292.255859 0.03125)"/>
     <path d="M 0 86.5 
L 0 92.75 
L 116.279297 92.75 
L 116.279297 86.5 
L 0 86.5 
z
"/>
    </g>
   </g>
   <g id="patch_3">
    <path d="M 634.44 609.321604 
L 1136.573333 609.321604 
Q 1161.68 609.321604 1161.68 584.214937 
L 1161.68 82.081604 
Q 1161.68 56.974937 1136.573333 56.974937 
L 634.44 56.974937 
Q 609.333333 56.974937 609.333333 82.081604 
L 609.333333 584.214937 
Q 609.333333 609.321604 634.44 609.321604 
L 634.44 609.321604 
z
" style="fill: none; stroke: #000000; stroke-width: 4.5"/>
   </g>
   <g id="text_4">
    <!-- Extended by a new vertex -->
    <g transform="translate(665.203542 35.910937) scale(0.42 -0.42)">
     <defs>
      <path id="Calibri-78" d="M 2609 138 
Q 2634 94 2634 64 
Q 2634 34 2604 15 
Q 2575 -3 2514 -11 
Q 2453 -19 2356 -19 
Q 2263 -19 2208 -14 
Q 2153 -9 2120 2 
Q 2088 13 2070 30 
Q 2053 47 2041 69 
L 1366 1184 
L 694 69 
Q 681 47 664 30 
Q 647 13 614 2 
Q 581 -9 528 -14 
Q 475 -19 388 -19 
Q 297 -19 239 -11 
Q 181 -3 154 15 
Q 128 34 129 64 
Q 131 94 159 138 
L 1034 1509 
L 206 2831 
Q 181 2875 179 2904 
Q 178 2934 208 2954 
Q 238 2975 298 2981 
Q 359 2988 459 2988 
Q 550 2988 604 2983 
Q 659 2978 690 2968 
Q 722 2959 737 2943 
Q 753 2928 766 2906 
L 1406 1859 
L 2056 2906 
Q 2069 2925 2084 2940 
Q 2100 2956 2126 2967 
Q 2153 2978 2201 2983 
Q 2250 2988 2334 2988 
Q 2425 2988 2483 2981 
Q 2541 2975 2569 2958 
Q 2597 2941 2594 2909 
Q 2591 2878 2563 2831 
L 1741 1525 
L 2609 138 
z
" transform="scale(0.015625)"/>
      <path id="Calibri-6e" d="M 2900 78 
Q 2900 53 2887 36 
Q 2875 19 2847 6 
Q 2819 -6 2769 -12 
Q 2719 -19 2644 -19 
Q 2566 -19 2516 -12 
Q 2466 -6 2437 6 
Q 2409 19 2396 36 
Q 2384 53 2384 78 
L 2384 1725 
Q 2384 1966 2346 2112 
Q 2309 2259 2237 2365 
Q 2166 2472 2052 2528 
Q 1938 2584 1788 2584 
Q 1594 2584 1400 2446 
Q 1206 2309 994 2044 
L 994 78 
Q 994 53 981 36 
Q 969 19 941 6 
Q 913 -6 863 -12 
Q 813 -19 734 -19 
Q 659 -19 609 -12 
Q 559 -6 529 6 
Q 500 19 489 36 
Q 478 53 478 78 
L 478 2891 
Q 478 2916 487 2933 
Q 497 2950 525 2964 
Q 553 2978 597 2983 
Q 641 2988 713 2988 
Q 781 2988 826 2983 
Q 872 2978 897 2964 
Q 922 2950 933 2933 
Q 944 2916 944 2891 
L 944 2519 
Q 1181 2784 1417 2907 
Q 1653 3031 1894 3031 
Q 2175 3031 2367 2936 
Q 2559 2841 2678 2681 
Q 2797 2522 2848 2308 
Q 2900 2094 2900 1794 
L 2900 78 
z
" transform="scale(0.015625)"/>
      <path id="Calibri-64" d="M 2888 78 
Q 2888 53 2877 34 
Q 2866 16 2839 5 
Q 2813 -6 2769 -12 
Q 2725 -19 2663 -19 
Q 2597 -19 2553 -12 
Q 2509 -6 2481 5 
Q 2453 16 2440 34 
Q 2428 53 2428 78 
L 2428 450 
Q 2206 209 1967 75 
Q 1728 -59 1444 -59 
Q 1134 -59 915 61 
Q 697 181 561 386 
Q 425 591 362 867 
Q 300 1144 300 1450 
Q 300 1813 378 2105 
Q 456 2397 609 2603 
Q 763 2809 989 2920 
Q 1216 3031 1513 3031 
Q 1759 3031 1964 2923 
Q 2169 2816 2369 2606 
L 2369 4241 
Q 2369 4263 2380 4283 
Q 2391 4303 2422 4314 
Q 2453 4325 2501 4333 
Q 2550 4341 2625 4341 
Q 2703 4341 2753 4333 
Q 2803 4325 2831 4314 
Q 2859 4303 2873 4283 
Q 2888 4263 2888 4241 
L 2888 78 
z
M 2369 2056 
Q 2159 2316 1964 2452 
Q 1769 2588 1556 2588 
Q 1359 2588 1221 2494 
Q 1084 2400 998 2247 
Q 913 2094 873 1900 
Q 834 1706 834 1506 
Q 834 1294 867 1091 
Q 900 888 981 730 
Q 1063 572 1197 476 
Q 1331 381 1534 381 
Q 1638 381 1733 409 
Q 1828 438 1928 503 
Q 2028 569 2137 673 
Q 2247 778 2369 931 
L 2369 2056 
z
" transform="scale(0.015625)"/>
      <path id="Calibri-62" d="M 3066 1522 
Q 3066 1156 2986 864 
Q 2906 572 2751 365 
Q 2597 159 2372 50 
Q 2147 -59 1856 -59 
Q 1722 -59 1608 -32 
Q 1494 -6 1384 53 
Q 1275 113 1165 203 
Q 1056 294 934 422 
L 934 78 
Q 934 53 921 34 
Q 909 16 881 5 
Q 853 -6 811 -12 
Q 769 -19 703 -19 
Q 641 -19 597 -12 
Q 553 -6 525 5 
Q 497 16 487 34 
Q 478 53 478 78 
L 478 4253 
Q 478 4278 489 4297 
Q 500 4316 529 4328 
Q 559 4341 609 4347 
Q 659 4353 734 4353 
Q 813 4353 863 4347 
Q 913 4341 941 4328 
Q 969 4316 981 4297 
Q 994 4278 994 4253 
L 994 2569 
Q 1119 2697 1236 2784 
Q 1353 2872 1465 2926 
Q 1578 2981 1690 3006 
Q 1803 3031 1928 3031 
Q 2234 3031 2451 2909 
Q 2669 2788 2805 2583 
Q 2941 2378 3003 2103 
Q 3066 1828 3066 1522 
z
M 2522 1463 
Q 2522 1678 2489 1881 
Q 2456 2084 2375 2240 
Q 2294 2397 2159 2492 
Q 2025 2588 1825 2588 
Q 1725 2588 1628 2559 
Q 1531 2531 1431 2465 
Q 1331 2400 1223 2297 
Q 1116 2194 994 2038 
L 994 916 
Q 1206 656 1400 520 
Q 1594 384 1803 384 
Q 1997 384 2134 478 
Q 2272 572 2358 726 
Q 2444 881 2483 1073 
Q 2522 1266 2522 1463 
z
" transform="scale(0.015625)"/>
      <path id="Calibri-79" d="M 1759 0 
L 1384 -1034 
Q 1366 -1084 1289 -1111 
Q 1213 -1138 1056 -1138 
Q 975 -1138 925 -1130 
Q 875 -1122 848 -1103 
Q 822 -1084 819 -1053 
Q 816 -1022 834 -978 
L 1222 0 
Q 1194 13 1169 41 
Q 1144 69 1134 100 
L 131 2788 
Q 106 2853 106 2890 
Q 106 2928 131 2950 
Q 156 2972 212 2980 
Q 269 2988 363 2988 
Q 456 2988 509 2983 
Q 563 2978 594 2965 
Q 625 2953 639 2929 
Q 653 2906 669 2866 
L 1472 609 
L 1481 609 
L 2256 2878 
Q 2275 2938 2301 2955 
Q 2328 2972 2381 2980 
Q 2434 2988 2534 2988 
Q 2622 2988 2678 2980 
Q 2734 2972 2761 2950 
Q 2788 2928 2788 2890 
Q 2788 2853 2769 2797 
L 1759 0 
z
" transform="scale(0.015625)"/>
      <path id="Calibri-61" d="M 2597 75 
Q 2597 38 2572 19 
Q 2547 0 2503 -9 
Q 2459 -19 2375 -19 
Q 2294 -19 2245 -9 
Q 2197 0 2175 19 
Q 2153 38 2153 75 
L 2153 356 
Q 1969 159 1742 50 
Q 1516 -59 1263 -59 
Q 1041 -59 861 -1 
Q 681 56 554 165 
Q 428 275 358 434 
Q 288 594 288 797 
Q 288 1034 384 1209 
Q 481 1384 662 1500 
Q 844 1616 1106 1673 
Q 1369 1731 1697 1731 
L 2084 1731 
L 2084 1950 
Q 2084 2113 2050 2238 
Q 2016 2363 1939 2445 
Q 1863 2528 1741 2570 
Q 1619 2613 1441 2613 
Q 1250 2613 1098 2567 
Q 947 2522 833 2467 
Q 719 2413 642 2367 
Q 566 2322 528 2322 
Q 503 2322 484 2334 
Q 466 2347 452 2372 
Q 438 2397 431 2436 
Q 425 2475 425 2522 
Q 425 2600 436 2645 
Q 447 2691 489 2731 
Q 531 2772 634 2826 
Q 738 2881 872 2926 
Q 1006 2972 1165 3001 
Q 1325 3031 1488 3031 
Q 1791 3031 2003 2962 
Q 2216 2894 2347 2761 
Q 2478 2628 2537 2431 
Q 2597 2234 2597 1972 
L 2597 75 
z
M 2084 1359 
L 1644 1359 
Q 1431 1359 1275 1323 
Q 1119 1288 1016 1217 
Q 913 1147 864 1048 
Q 816 950 816 822 
Q 816 603 955 473 
Q 1094 344 1344 344 
Q 1547 344 1720 447 
Q 1894 550 2084 763 
L 2084 1359 
z
" transform="scale(0.015625)"/>
     </defs>
     <use xlink:href="#Calibri-45"/>
     <use xlink:href="#Calibri-78" transform="translate(48.828125 0)"/>
     <use xlink:href="#Calibri-74" transform="translate(92.138672 0)"/>
     <use xlink:href="#Calibri-65" transform="translate(125.634766 0)"/>
     <use xlink:href="#Calibri-6e" transform="translate(175.390625 0)"/>
     <use xlink:href="#Calibri-64" transform="translate(227.929688 0)"/>
     <use xlink:href="#Calibri-65" transform="translate(280.46875 0)"/>
     <use xlink:href="#Calibri-64" transform="translate(330.224609 0)"/>
     <use xlink:href="#Calibri-20" transform="translate(382.763672 0)"/>
     <use xlink:href="#Calibri-62" transform="translate(405.371094 0)"/>
     <use xlink:href="#Calibri-79" transform="translate(457.910156 0)"/>
     <use xlink:href="#Calibri-20" transform="translate(503.173828 0)"/>
     <use xlink:href="#Calibri-61" transform="translate(525.78125 0)"/>
     <use xlink:href="#Calibri-20" transform="translate(573.681641 0)"/>
     <use xlink:href="#Calibri-6e" transform="translate(596.289062 0)"/>
     <use xlink:href="#Calibri-65" transform="translate(648.828125 0)"/>
     <use xlink:href="#Calibri-77" transform="translate(698.583984 0)"/>
     <use xlink:href="#Calibri-20" transform="translate(770.068359 0)"/>
     <use xlink:href="#Calibri-76" transform="translate(792.675781 0)"/>
     <use xlink:href="#Calibri-65" transform="translate(837.841797 0)"/>
     <use xlink:href="#Calibri-72" transform="translate(887.597656 0)"/>
     <use xlink:href="#Calibri-74" transform="translate(922.460938 0)"/>
     <use xlink:href="#Calibri-65" transform="translate(955.957031 0)"/>
     <use xlink:href="#Calibri-78" transform="translate(1005.712891 0)"/>
    </g>
   </g>
  </g>
  <g id="axes_3">
   <g id="LineCollection_5">
    <path d="M 1383.028889 202.384382 
L 1435.334444 463.91216 
" clip-path="url(#pe0bd09ae55)" style="fill: none; stroke-dasharray: 11.1,4.8; stroke-dashoffset: 0; stroke: #ff0000; stroke-width: 3"/>
    <path d="M 1487.64 306.995493 
L 1330.723333 463.91216 
" clip-path="url(#pe0bd09ae55)" style="fill: none; stroke-dasharray: 11.1,4.8; stroke-dashoffset: 0; stroke: #ff0000; stroke-width: 3"/>
   </g>
   <g id="LineCollection_6">
    <path d="M 1383.028889 202.384382 
L 1487.64 306.995493 
" clip-path="url(#pe0bd09ae55)" style="fill: none; stroke: #92d050; stroke-width: 3"/>
    <path d="M 1330.723333 463.91216 
L 1435.334444 463.91216 
" clip-path="url(#pe0bd09ae55)" style="fill: none; stroke: #92d050; stroke-width: 3"/>
   </g>
   <g id="LineCollection_7">
    <path d="M 1383.028889 202.384382 
L 1278.417778 306.995493 
" clip-path="url(#pe0bd09ae55)" style="fill: none; stroke: #000000; stroke-width: 3"/>
    <path d="M 1383.028889 202.384382 
L 1330.723333 463.91216 
" clip-path="url(#pe0bd09ae55)" style="fill: none; stroke: #000000; stroke-width: 3"/>
    <path d="M 1278.417778 306.995493 
L 1487.64 306.995493 
" clip-path="url(#pe0bd09ae55)" style="fill: none; stroke: #000000; stroke-width: 3"/>
    <path d="M 1278.417778 306.995493 
L 1330.723333 463.91216 
" clip-path="url(#pe0bd09ae55)" style="fill: none; stroke: #000000; stroke-width: 3"/>
    <path d="M 1487.64 306.995493 
L 1435.334444 463.91216 
" clip-path="url(#pe0bd09ae55)" style="fill: none; stroke: #000000; stroke-width: 3"/>
    <path d="M 1696.862222 333.148271 
L 1383.028889 202.384382 
" clip-path="url(#pe0bd09ae55)" style="fill: none; stroke: #000000; stroke-width: 3"/>
    <path d="M 1696.862222 333.148271 
L 1330.723333 463.91216 
" clip-path="url(#pe0bd09ae55)" style="fill: none; stroke: #000000; stroke-width: 3"/>
    <path d="M 1696.862222 333.148271 
L 1487.64 306.995493 
" clip-path="url(#pe0bd09ae55)" style="fill: none; stroke: #000000; stroke-width: 3"/>
    <path d="M 1696.862222 333.148271 
L 1435.334444 463.91216 
" clip-path="url(#pe0bd09ae55)" style="fill: none; stroke: #000000; stroke-width: 3"/>
   </g>
   <g id="PathCollection_3">
    <defs>
     <path id="C2_0_e580272cb6" d="M 0 8.660254 
C 2.296726 8.660254 4.499694 7.747755 6.123724 6.123724 
C 7.747755 4.499694 8.660254 2.296726 8.660254 -0 
C 8.660254 -2.296726 7.747755 -4.499694 6.123724 -6.123724 
C 4.499694 -7.747755 2.296726 -8.660254 0 -8.660254 
C -2.296726 -8.660254 -4.499694 -7.747755 -6.123724 -6.123724 
C -7.747755 -4.499694 -8.660254 -2.296726 -8.660254 0 
C -8.660254 2.296726 -7.747755 4.499694 -6.123724 6.123724 
C -4.499694 7.747755 -2.296726 8.660254 0 8.660254 
z
"/>
    </defs>
    <g clip-path="url(#pe0bd09ae55)">
     <use xlink:href="#C2_0_e580272cb6" x="1383.028889" y="202.384382" style="stroke: #000000; stroke-width: 3"/>
    </g>
    <g clip-path="url(#pe0bd09ae55)">
     <use xlink:href="#C2_0_e580272cb6" x="1278.417778" y="306.995493" style="stroke: #000000; stroke-width: 3"/>
    </g>
    <g clip-path="url(#pe0bd09ae55)">
     <use xlink:href="#C2_0_e580272cb6" x="1487.64" y="306.995493" style="stroke: #000000; stroke-width: 3"/>
    </g>
    <g clip-path="url(#pe0bd09ae55)">
     <use xlink:href="#C2_0_e580272cb6" x="1330.723333" y="463.91216" style="stroke: #000000; stroke-width: 3"/>
    </g>
    <g clip-path="url(#pe0bd09ae55)">
     <use xlink:href="#C2_0_e580272cb6" x="1435.334444" y="463.91216" style="stroke: #000000; stroke-width: 3"/>
    </g>
    <g clip-path="url(#pe0bd09ae55)">
     <use xlink:href="#C2_0_e580272cb6" x="1696.862222" y="333.148271" style="stroke: #000000; stroke-width: 3"/>
    </g>
   </g>
   <g id="text_5">
    <!-- GQ: 0.83 -->
    <g transform="translate(1593.627 535.964287) scale(0.336 -0.336)">
     <use xlink:href="#Calibri-47"/>
     <use xlink:href="#Calibri-51" transform="translate(63.085938 0)"/>
     <use xlink:href="#Calibri-3a" transform="translate(130.371094 0)"/>
     <use xlink:href="#Calibri-20" transform="translate(157.128906 0)"/>
     <use xlink:href="#Calibri-30" transform="translate(179.736328 0)"/>
     <use xlink:href="#Calibri-2e" transform="translate(230.419922 0)"/>
     <use xlink:href="#Calibri-38" transform="translate(255.664062 0)"/>
     <use xlink:href="#Calibri-33" transform="translate(306.347656 0)"/>
    </g>
    <!-- $\overline{\delta_N}$: 4.15 -->
    <g transform="translate(1598.352 578.240437) scale(0.336 -0.336)">
     <use xlink:href="#DejaVuSans-Oblique-3b4" transform="translate(0 0.53125)"/>
     <use xlink:href="#DejaVuSans-Oblique-4e" transform="translate(61.181641 -15.875) scale(0.7)"/>
     <use xlink:href="#Calibri-3a" transform="translate(116.279297 0.03125)"/>
     <use xlink:href="#Calibri-20" transform="translate(143.037109 0.03125)"/>
     <use xlink:href="#Calibri-34" transform="translate(165.644531 0.03125)"/>
     <use xlink:href="#Calibri-2e" transform="translate(216.328125 0.03125)"/>
     <use xlink:href="#Calibri-31" transform="translate(241.572266 0.03125)"/>
     <use xlink:href="#Calibri-35" transform="translate(292.255859 0.03125)"/>
     <path d="M 0 86.5 
L 0 92.75 
L 116.279297 92.75 
L 116.279297 86.5 
L 0 86.5 
z
"/>
    </g>
   </g>
   <g id="patch_4">
    <path d="M 1236.573333 609.321604 
L 1738.706667 609.321604 
Q 1763.813333 609.321604 1763.813333 584.214937 
L 1763.813333 82.081604 
Q 1763.813333 56.974937 1738.706667 56.974937 
L 1236.573333 56.974937 
Q 1211.466667 56.974937 1211.466667 82.081604 
L 1211.466667 584.214937 
Q 1211.466667 609.321604 1236.573333 609.321604 
L 1236.573333 609.321604 
z
" style="fill: none; stroke: #000000; stroke-width: 4.5"/>
   </g>
   <g id="text_6">
    <!-- After swapping two edges -->
    <g transform="translate(1265.788125 35.910937) scale(0.42 -0.42)">
     <defs>
      <path id="Calibri-41" d="M 3566 191 
Q 3591 122 3592 80 
Q 3594 38 3569 16 
Q 3544 -6 3486 -12 
Q 3428 -19 3331 -19 
Q 3234 -19 3176 -14 
Q 3119 -9 3089 2 
Q 3059 13 3045 31 
Q 3031 50 3019 78 
L 2672 1063 
L 991 1063 
L 659 91 
Q 650 63 634 42 
Q 619 22 589 8 
Q 559 -6 504 -12 
Q 450 -19 363 -19 
Q 272 -19 214 -11 
Q 156 -3 132 19 
Q 109 41 111 83 
Q 113 125 138 194 
L 1494 3950 
Q 1506 3984 1526 4006 
Q 1547 4028 1586 4040 
Q 1625 4053 1686 4058 
Q 1747 4063 1841 4063 
Q 1941 4063 2006 4058 
Q 2072 4053 2112 4040 
Q 2153 4028 2175 4004 
Q 2197 3981 2209 3947 
L 3566 191 
z
M 1825 3506 
L 1822 3506 
L 1125 1491 
L 2531 1491 
L 1825 3506 
z
" transform="scale(0.015625)"/>
      <path id="Calibri-66" d="M 2019 4047 
Q 2019 3988 2012 3952 
Q 2006 3916 1998 3894 
Q 1991 3872 1978 3864 
Q 1966 3856 1947 3856 
Q 1925 3856 1892 3870 
Q 1859 3884 1812 3901 
Q 1766 3919 1702 3933 
Q 1638 3947 1553 3947 
Q 1438 3947 1356 3909 
Q 1275 3872 1225 3792 
Q 1175 3713 1153 3586 
Q 1131 3459 1131 3278 
L 1131 2972 
L 1759 2972 
Q 1784 2972 1801 2961 
Q 1819 2950 1833 2923 
Q 1847 2897 1855 2856 
Q 1863 2816 1863 2756 
Q 1863 2644 1834 2594 
Q 1806 2544 1759 2544 
L 1131 2544 
L 1131 78 
Q 1131 53 1118 36 
Q 1106 19 1076 6 
Q 1047 -6 997 -12 
Q 947 -19 872 -19 
Q 797 -19 747 -12 
Q 697 -6 667 6 
Q 638 19 625 36 
Q 613 53 613 78 
L 613 2544 
L 216 2544 
Q 166 2544 141 2594 
Q 116 2644 116 2756 
Q 116 2816 122 2856 
Q 128 2897 140 2923 
Q 153 2950 172 2961 
Q 191 2972 216 2972 
L 613 2972 
L 613 3263 
Q 613 3556 667 3767 
Q 722 3978 834 4112 
Q 947 4247 1117 4311 
Q 1288 4375 1519 4375 
Q 1628 4375 1731 4354 
Q 1834 4334 1890 4311 
Q 1947 4288 1965 4269 
Q 1984 4250 1996 4220 
Q 2009 4191 2014 4148 
Q 2019 4106 2019 4047 
z
" transform="scale(0.015625)"/>
      <path id="Calibri-70" d="M 3066 1528 
Q 3066 1159 2986 865 
Q 2906 572 2751 367 
Q 2597 163 2369 52 
Q 2141 -59 1847 -59 
Q 1722 -59 1615 -34 
Q 1509 -9 1407 44 
Q 1306 97 1206 178 
Q 1106 259 994 369 
L 994 -1038 
Q 994 -1063 981 -1081 
Q 969 -1100 941 -1112 
Q 913 -1125 863 -1131 
Q 813 -1138 734 -1138 
Q 659 -1138 609 -1131 
Q 559 -1125 529 -1112 
Q 500 -1100 489 -1081 
Q 478 -1063 478 -1038 
L 478 2891 
Q 478 2919 487 2936 
Q 497 2953 525 2965 
Q 553 2978 597 2983 
Q 641 2988 703 2988 
Q 769 2988 811 2983 
Q 853 2978 881 2965 
Q 909 2953 920 2936 
Q 931 2919 931 2891 
L 931 2513 
Q 1059 2644 1178 2741 
Q 1297 2838 1417 2902 
Q 1538 2966 1664 2998 
Q 1791 3031 1931 3031 
Q 2238 3031 2453 2912 
Q 2669 2794 2805 2587 
Q 2941 2381 3003 2107 
Q 3066 1834 3066 1528 
z
M 2522 1469 
Q 2522 1684 2489 1886 
Q 2456 2088 2376 2244 
Q 2297 2400 2162 2494 
Q 2028 2588 1828 2588 
Q 1728 2588 1631 2558 
Q 1534 2528 1434 2464 
Q 1334 2400 1225 2295 
Q 1116 2191 994 2038 
L 994 919 
Q 1206 659 1397 521 
Q 1588 384 1797 384 
Q 1991 384 2130 478 
Q 2269 572 2355 728 
Q 2441 884 2481 1078 
Q 2522 1272 2522 1469 
z
" transform="scale(0.015625)"/>
      <path id="Calibri-67" d="M 2828 2763 
Q 2828 2653 2798 2604 
Q 2769 2556 2722 2556 
L 2319 2556 
Q 2428 2444 2472 2308 
Q 2516 2172 2516 2025 
Q 2516 1781 2437 1593 
Q 2359 1406 2214 1276 
Q 2069 1147 1869 1078 
Q 1669 1009 1425 1009 
Q 1253 1009 1098 1054 
Q 944 1100 859 1169 
Q 803 1113 767 1041 
Q 731 969 731 875 
Q 731 766 832 694 
Q 934 622 1103 616 
L 1838 584 
Q 2047 578 2222 526 
Q 2397 475 2525 379 
Q 2653 284 2725 145 
Q 2797 6 2797 -178 
Q 2797 -372 2715 -547 
Q 2634 -722 2467 -855 
Q 2300 -988 2040 -1064 
Q 1781 -1141 1428 -1141 
Q 1088 -1141 848 -1083 
Q 609 -1025 456 -925 
Q 303 -825 234 -686 
Q 166 -547 166 -384 
Q 166 -281 191 -184 
Q 216 -88 267 0 
Q 319 88 395 167 
Q 472 247 572 325 
Q 419 403 345 522 
Q 272 641 272 778 
Q 272 969 350 1119 
Q 428 1269 544 1388 
Q 447 1503 390 1648 
Q 334 1794 334 2000 
Q 334 2241 415 2431 
Q 497 2622 640 2753 
Q 784 2884 986 2954 
Q 1188 3025 1425 3025 
Q 1553 3025 1664 3011 
Q 1775 2997 1872 2972 
L 2722 2972 
Q 2775 2972 2801 2920 
Q 2828 2869 2828 2763 
z
M 2022 2022 
Q 2022 2309 1864 2470 
Q 1706 2631 1416 2631 
Q 1266 2631 1155 2581 
Q 1044 2531 970 2443 
Q 897 2356 861 2242 
Q 825 2128 825 2003 
Q 825 1725 983 1565 
Q 1141 1406 1425 1406 
Q 1578 1406 1690 1454 
Q 1803 1503 1876 1589 
Q 1950 1675 1986 1787 
Q 2022 1900 2022 2022 
z
M 2281 -206 
Q 2281 -25 2132 73 
Q 1984 172 1731 178 
L 1003 203 
Q 903 125 839 54 
Q 775 -16 737 -80 
Q 700 -144 686 -206 
Q 672 -269 672 -334 
Q 672 -538 878 -642 
Q 1084 -747 1453 -747 
Q 1688 -747 1845 -701 
Q 2003 -656 2100 -581 
Q 2197 -506 2239 -409 
Q 2281 -313 2281 -206 
z
" transform="scale(0.015625)"/>
      <path id="Calibri-6f" d="M 3094 1516 
Q 3094 1172 3003 883 
Q 2913 594 2733 384 
Q 2553 175 2283 58 
Q 2013 -59 1656 -59 
Q 1309 -59 1051 44 
Q 794 147 622 344 
Q 450 541 365 822 
Q 281 1103 281 1459 
Q 281 1803 370 2092 
Q 459 2381 639 2590 
Q 819 2800 1087 2915 
Q 1356 3031 1716 3031 
Q 2063 3031 2320 2928 
Q 2578 2825 2750 2628 
Q 2922 2431 3008 2150 
Q 3094 1869 3094 1516 
z
M 2550 1481 
Q 2550 1709 2508 1912 
Q 2466 2116 2369 2269 
Q 2272 2422 2106 2511 
Q 1941 2600 1694 2600 
Q 1466 2600 1302 2519 
Q 1138 2438 1031 2289 
Q 925 2141 873 1937 
Q 822 1734 822 1494 
Q 822 1263 864 1059 
Q 906 856 1004 704 
Q 1103 553 1268 464 
Q 1434 375 1681 375 
Q 1906 375 2072 456 
Q 2238 538 2344 684 
Q 2450 831 2500 1034 
Q 2550 1238 2550 1481 
z
" transform="scale(0.015625)"/>
     </defs>
     <use xlink:href="#Calibri-41"/>
     <use xlink:href="#Calibri-66" transform="translate(57.861328 0)"/>
     <use xlink:href="#Calibri-74" transform="translate(88.378906 0)"/>
     <use xlink:href="#Calibri-65" transform="translate(121.875 0)"/>
     <use xlink:href="#Calibri-72" transform="translate(171.630859 0)"/>
     <use xlink:href="#Calibri-20" transform="translate(206.494141 0)"/>
     <use xlink:href="#Calibri-73" transform="translate(229.101562 0)"/>
     <use xlink:href="#Calibri-77" transform="translate(268.212891 0)"/>
     <use xlink:href="#Calibri-61" transform="translate(339.697266 0)"/>
     <use xlink:href="#Calibri-70" transform="translate(387.597656 0)"/>
     <use xlink:href="#Calibri-70" transform="translate(440.136719 0)"/>
     <use xlink:href="#Calibri-69" transform="translate(492.675781 0)"/>
     <use xlink:href="#Calibri-6e" transform="translate(515.625 0)"/>
     <use xlink:href="#Calibri-67" transform="translate(568.164062 0)"/>
     <use xlink:href="#Calibri-20" transform="translate(615.234375 0)"/>
     <use xlink:href="#Calibri-74" transform="translate(637.841797 0)"/>
     <use xlink:href="#Calibri-77" transform="translate(671.337891 0)"/>
     <use xlink:href="#Calibri-6f" transform="translate(742.822266 0)"/>
     <use xlink:href="#Calibri-20" transform="translate(795.556641 0)"/>
     <use xlink:href="#Calibri-65" transform="translate(818.164062 0)"/>
     <use xlink:href="#Calibri-64" transform="translate(867.919922 0)"/>
     <use xlink:href="#Calibri-67" transform="translate(920.458984 0)"/>
     <use xlink:href="#Calibri-65" transform="translate(967.529297 0)"/>
     <use xlink:href="#Calibri-73" transform="translate(1017.285156 0)"/>
    </g>
   </g>
  </g>
 </g>
 <defs>
  <clipPath id="p3859f65e40">
   <rect x="32.306667" y="82.081604" width="502.133333" height="502.133333"/>
  </clipPath>
  <clipPath id="p2b27d502e7">
   <rect x="634.44" y="82.081604" width="502.133333" height="502.133333"/>
  </clipPath>
  <clipPath id="pe0bd09ae55">
   <rect x="1236.573333" y="82.081604" width="502.133333" height="502.133333"/>
  </clipPath>
 </defs>
</svg>
