<?xml version="1.0" encoding="utf-8" standalone="no"?>
<!DOCTYPE svg PUBLIC "-//W3C//DTD SVG 1.1//EN"
  "http://www.w3.org/Graphics/SVG/1.1/DTD/svg11.dtd">
<svg xmlns:xlink="http://www.w3.org/1999/xlink" width="1719.299373pt" height="1178.278892pt" viewBox="0 0 1719.299373 1178.278892" xmlns="http://www.w3.org/2000/svg" version="1.1">
 <metadata>
  <rdf:RDF xmlns:dc="http://purl.org/dc/elements/1.1/" xmlns:cc="http://creativecommons.org/ns#" xmlns:rdf="http://www.w3.org/1999/02/22-rdf-syntax-ns#">
   <cc:Work>
    <dc:type rdf:resource="http://purl.org/dc/dcmitype/StillImage"/>
    <dc:date>2025-11-04T18:49:15.242722</dc:date>
    <dc:format>image/svg+xml</dc:format>
    <dc:creator>
     <cc:Agent>
      <dc:title>Matplotlib v3.10.6, https://matplotlib.org/</dc:title>
     </cc:Agent>
    </dc:creator>
   </cc:Work>
  </rdf:RDF>
 </metadata>
 <defs>
  <style type="text/css">*{stroke-linejoin: round; stroke-linecap: butt}</style>
 </defs>
 <g id="figure_1">
  <g id="patch_1">
   <path d="M 0 1178.278892 
L 1719.299373 1178.278892 
L 1719.299373 0 
L 0 0 
z
" style="fill: #ffffff"/>
  </g>
  <g id="axes_1">
   <g id="LineCollection_1">
    <path d="M 62.623375 207.783491 
L 156.978027 161.576678 
" clip-path="url(#p0c850dc351)" style="fill: none; stroke: #000000; stroke-width: 3"/>
    <path d="M 62.623375 207.783491 
L 131.214251 290.248262 
" clip-path="url(#p0c850dc351)" style="fill: none; stroke: #000000; stroke-width: 3"/>
    <path d="M 223.907091 227.899551 
L 148.200487 307.568474 
" clip-path="url(#p0c850dc351)" style="fill: none; stroke: #000000; stroke-width: 3"/>
    <path d="M 223.907091 227.899551 
L 156.978027 161.576678 
" clip-path="url(#p0c850dc351)" style="fill: none; stroke: #000000; stroke-width: 3"/>
    <path d="M 223.907091 227.899551 
L 296.125885 147.132529 
" clip-path="url(#p0c850dc351)" style="fill: none; stroke: #000000; stroke-width: 3"/>
    <path d="M 464.242037 293.809422 
L 331.171276 199.295649 
" clip-path="url(#p0c850dc351)" style="fill: none; stroke: #000000; stroke-width: 3"/>
    <path d="M 464.242037 293.809422 
L 443.404178 476.818667 
" clip-path="url(#p0c850dc351)" style="fill: none; stroke: #000000; stroke-width: 3"/>
    <path d="M 251.839353 460.017089 
L 198.310168 462.195963 
" clip-path="url(#p0c850dc351)" style="fill: none; stroke: #000000; stroke-width: 3"/>
    <path d="M 251.839353 460.017089 
L 443.404178 476.818667 
" clip-path="url(#p0c850dc351)" style="fill: none; stroke: #000000; stroke-width: 3"/>
    <path d="M 148.200487 307.568474 
L 123.678997 324.586212 
" clip-path="url(#p0c850dc351)" style="fill: none; stroke: #000000; stroke-width: 3"/>
    <path d="M 148.200487 307.568474 
L 131.214251 290.248262 
" clip-path="url(#p0c850dc351)" style="fill: none; stroke: #000000; stroke-width: 3"/>
    <path d="M 331.171276 199.295649 
L 296.125885 147.132529 
" clip-path="url(#p0c850dc351)" style="fill: none; stroke: #000000; stroke-width: 3"/>
    <path d="M 198.310168 462.195963 
L 123.678997 324.586212 
" clip-path="url(#p0c850dc351)" style="fill: none; stroke: #000000; stroke-width: 3"/>
   </g>
   <g id="PathCollection_1">
    <defs>
     <path id="C0_0_1f05fb460b" d="M 0 8.660254 
C 2.296726 8.660254 4.499694 7.747755 6.123724 6.123724 
C 7.747755 4.499694 8.660254 2.296726 8.660254 -0 
C 8.660254 -2.296726 7.747755 -4.499694 6.123724 -6.123724 
C 4.499694 -7.747755 2.296726 -8.660254 0 -8.660254 
C -2.296726 -8.660254 -4.499694 -7.747755 -6.123724 -6.123724 
C -7.747755 -4.499694 -8.660254 -2.296726 -8.660254 0 
C -8.660254 2.296726 -7.747755 4.499694 -6.123724 6.123724 
C -4.499694 7.747755 -2.296726 8.660254 0 8.660254 
z
"/>
    </defs>
    <g clip-path="url(#p0c850dc351)">
     <use xlink:href="#C0_0_1f05fb460b" x="62.623375" y="207.783491" style="fill: #ffe599; stroke: #000000; stroke-width: 3"/>
    </g>
    <g clip-path="url(#p0c850dc351)">
     <use xlink:href="#C0_0_1f05fb460b" x="223.907091" y="227.899551" style="fill: #ffe599; stroke: #000000; stroke-width: 3"/>
    </g>
    <g clip-path="url(#p0c850dc351)">
     <use xlink:href="#C0_0_1f05fb460b" x="464.242037" y="293.809422" style="fill: #ffe599; stroke: #000000; stroke-width: 3"/>
    </g>
    <g clip-path="url(#p0c850dc351)">
     <use xlink:href="#C0_0_1f05fb460b" x="251.839353" y="460.017089" style="fill: #ffe599; stroke: #000000; stroke-width: 3"/>
    </g>
    <g clip-path="url(#p0c850dc351)">
     <use xlink:href="#C0_0_1f05fb460b" x="148.200487" y="307.568474" style="fill: #ffe599; stroke: #000000; stroke-width: 3"/>
    </g>
    <g clip-path="url(#p0c850dc351)">
     <use xlink:href="#C0_0_1f05fb460b" x="331.171276" y="199.295649" style="fill: #ffe599; stroke: #000000; stroke-width: 3"/>
    </g>
    <g clip-path="url(#p0c850dc351)">
     <use xlink:href="#C0_0_1f05fb460b" x="198.310168" y="462.195963" style="fill: #ffe599; stroke: #000000; stroke-width: 3"/>
    </g>
    <g clip-path="url(#p0c850dc351)">
     <use xlink:href="#C0_0_1f05fb460b" x="156.978027" y="161.576678" style="fill: #ffe599; stroke: #000000; stroke-width: 3"/>
    </g>
    <g clip-path="url(#p0c850dc351)">
     <use xlink:href="#C0_0_1f05fb460b" x="123.678997" y="324.586212" style="fill: #ffe599; stroke: #000000; stroke-width: 3"/>
    </g>
    <g clip-path="url(#p0c850dc351)">
     <use xlink:href="#C0_0_1f05fb460b" x="443.404178" y="476.818667" style="fill: #ffe599; stroke: #000000; stroke-width: 3"/>
    </g>
    <g clip-path="url(#p0c850dc351)">
     <use xlink:href="#C0_0_1f05fb460b" x="296.125885" y="147.132529" style="fill: #ffe599; stroke: #000000; stroke-width: 3"/>
    </g>
    <g clip-path="url(#p0c850dc351)">
     <use xlink:href="#C0_0_1f05fb460b" x="131.214251" y="290.248262" style="fill: #ffe599; stroke: #000000; stroke-width: 3"/>
    </g>
   </g>
   <g id="patch_2">
    <path d="M 30.493882 568.208304 
L 496.371529 568.208304 
Q 519.665412 568.208304 519.665412 544.914421 
L 519.665412 79.036774 
Q 519.665412 55.742892 496.371529 55.742892 
L 30.493882 55.742892 
Q 7.2 55.742892 7.2 79.036774 
L 7.2 544.914421 
Q 7.2 568.208304 30.493882 568.208304 
L 30.493882 568.208304 
z
" style="fill: none; stroke: #000000; stroke-width: 4.5"/>
   </g>
   <g id="text_1">
    <!-- RNG -->
    <g transform="translate(225.225831 35.766562) scale(0.42 -0.42)">
     <defs>
      <path id="Calibri-52" d="M 3234 81 
Q 3234 56 3225 37 
Q 3216 19 3184 6 
Q 3153 -6 3097 -12 
Q 3041 -19 2947 -19 
Q 2866 -19 2814 -12 
Q 2763 -6 2731 8 
Q 2700 22 2683 47 
Q 2666 72 2653 109 
L 2281 1063 
Q 2216 1225 2145 1361 
Q 2075 1497 1978 1595 
Q 1881 1694 1750 1748 
Q 1619 1803 1434 1803 
L 1075 1803 
L 1075 81 
Q 1075 56 1061 37 
Q 1047 19 1017 8 
Q 988 -3 936 -11 
Q 884 -19 806 -19 
Q 728 -19 676 -11 
Q 625 -3 594 8 
Q 563 19 550 37 
Q 538 56 538 81 
L 538 3825 
Q 538 3947 602 3995 
Q 666 4044 738 4044 
L 1597 4044 
Q 1750 4044 1851 4036 
Q 1953 4028 2034 4019 
Q 2269 3978 2448 3890 
Q 2628 3803 2750 3668 
Q 2872 3534 2933 3361 
Q 2994 3188 2994 2978 
Q 2994 2775 2939 2614 
Q 2884 2453 2781 2329 
Q 2678 2206 2534 2115 
Q 2391 2025 2213 1963 
Q 2313 1919 2394 1851 
Q 2475 1784 2545 1690 
Q 2616 1597 2678 1475 
Q 2741 1353 2803 1200 
L 3166 309 
Q 3209 197 3221 151 
Q 3234 106 3234 81 
z
M 2425 2922 
Q 2425 3159 2319 3323 
Q 2213 3488 1963 3559 
Q 1884 3581 1786 3590 
Q 1688 3600 1528 3600 
L 1075 3600 
L 1075 2238 
L 1600 2238 
Q 1813 2238 1967 2289 
Q 2122 2341 2225 2433 
Q 2328 2525 2376 2650 
Q 2425 2775 2425 2922 
z
" transform="scale(0.015625)"/>
      <path id="Calibri-4e" d="M 3594 222 
Q 3594 159 3573 115 
Q 3553 72 3520 44 
Q 3488 16 3447 3 
Q 3406 -9 3366 -9 
L 3194 -9 
Q 3113 -9 3052 8 
Q 2991 25 2936 70 
Q 2881 116 2826 194 
Q 2772 272 2706 394 
L 1431 2694 
Q 1331 2872 1229 3067 
Q 1128 3263 1041 3447 
L 1034 3447 
Q 1041 3222 1044 2987 
Q 1047 2753 1047 2522 
L 1047 81 
Q 1047 59 1034 39 
Q 1022 19 992 8 
Q 963 -3 914 -11 
Q 866 -19 791 -19 
Q 716 -19 667 -11 
Q 619 -3 591 8 
Q 563 19 550 39 
Q 538 59 538 81 
L 538 3813 
Q 538 3938 606 3991 
Q 675 4044 756 4044 
L 1013 4044 
Q 1103 4044 1164 4028 
Q 1225 4013 1273 3977 
Q 1322 3941 1367 3877 
Q 1413 3813 1466 3716 
L 2447 1941 
Q 2538 1778 2622 1623 
Q 2706 1469 2784 1319 
Q 2863 1169 2939 1023 
Q 3016 878 3091 731 
L 3094 731 
Q 3088 978 3086 1245 
Q 3084 1513 3084 1759 
L 3084 3953 
Q 3084 3975 3096 3994 
Q 3109 4013 3139 4027 
Q 3169 4041 3217 4047 
Q 3266 4053 3344 4053 
Q 3413 4053 3463 4047 
Q 3513 4041 3541 4027 
Q 3569 4013 3581 3994 
Q 3594 3975 3594 3953 
L 3594 222 
z
" transform="scale(0.015625)"/>
      <path id="Calibri-47" d="M 3575 3494 
Q 3575 3434 3569 3389 
Q 3563 3344 3550 3314 
Q 3538 3284 3519 3271 
Q 3500 3259 3478 3259 
Q 3441 3259 3353 3318 
Q 3266 3378 3119 3450 
Q 2972 3522 2767 3581 
Q 2563 3641 2281 3641 
Q 1947 3641 1681 3519 
Q 1416 3397 1231 3181 
Q 1047 2966 948 2669 
Q 850 2372 850 2025 
Q 850 1638 958 1338 
Q 1066 1038 1256 831 
Q 1447 625 1711 519 
Q 1975 413 2291 413 
Q 2478 413 2670 458 
Q 2863 503 3028 594 
L 3028 1772 
L 2091 1772 
Q 2038 1772 2011 1825 
Q 1984 1878 1984 1991 
Q 1984 2050 1990 2092 
Q 1997 2134 2011 2161 
Q 2025 2188 2044 2200 
Q 2063 2213 2091 2213 
L 3375 2213 
Q 3409 2213 3443 2200 
Q 3478 2188 3506 2163 
Q 3534 2138 3550 2094 
Q 3566 2050 3566 1994 
L 3566 453 
Q 3566 372 3537 312 
Q 3509 253 3418 208 
Q 3328 163 3184 109 
Q 3041 56 2887 18 
Q 2734 -19 2578 -37 
Q 2422 -56 2269 -56 
Q 1800 -56 1431 89 
Q 1063 234 808 503 
Q 553 772 418 1147 
Q 284 1522 284 1984 
Q 284 2466 429 2856 
Q 575 3247 839 3522 
Q 1103 3797 1473 3948 
Q 1844 4100 2294 4100 
Q 2525 4100 2728 4059 
Q 2931 4019 3089 3964 
Q 3247 3909 3355 3845 
Q 3463 3781 3503 3740 
Q 3544 3700 3559 3647 
Q 3575 3594 3575 3494 
z
" transform="scale(0.015625)"/>
     </defs>
     <use xlink:href="#Calibri-52"/>
     <use xlink:href="#Calibri-4e" transform="translate(54.296875 0)"/>
     <use xlink:href="#Calibri-47" transform="translate(118.847656 0)"/>
    </g>
   </g>
  </g>
  <g id="axes_2">
   <g id="LineCollection_2">
    <path d="M 658.090042 207.783491 
L 752.444694 161.576678 
" clip-path="url(#p04d69c98d0)" style="fill: none; stroke: #000000; stroke-width: 3"/>
    <path d="M 658.090042 207.783491 
L 726.680918 290.248262 
" clip-path="url(#p04d69c98d0)" style="fill: none; stroke: #000000; stroke-width: 3"/>
    <path d="M 819.373758 227.899551 
L 743.667154 307.568474 
" clip-path="url(#p04d69c98d0)" style="fill: none; stroke: #000000; stroke-width: 3"/>
    <path d="M 819.373758 227.899551 
L 752.444694 161.576678 
" clip-path="url(#p04d69c98d0)" style="fill: none; stroke: #000000; stroke-width: 3"/>
    <path d="M 819.373758 227.899551 
L 1038.870845 476.818667 
" clip-path="url(#p04d69c98d0)" style="fill: none; stroke: #000000; stroke-width: 3"/>
    <path d="M 819.373758 227.899551 
L 891.592552 147.132529 
" clip-path="url(#p04d69c98d0)" style="fill: none; stroke: #000000; stroke-width: 3"/>
    <path d="M 1059.708703 293.809422 
L 926.637942 199.295649 
" clip-path="url(#p04d69c98d0)" style="fill: none; stroke: #000000; stroke-width: 3"/>
    <path d="M 1059.708703 293.809422 
L 1038.870845 476.818667 
" clip-path="url(#p04d69c98d0)" style="fill: none; stroke: #000000; stroke-width: 3"/>
    <path d="M 847.30602 460.017089 
L 819.373758 227.899551 
" clip-path="url(#p04d69c98d0)" style="fill: none; stroke: #000000; stroke-width: 3"/>
    <path d="M 847.30602 460.017089 
L 793.776834 462.195963 
" clip-path="url(#p04d69c98d0)" style="fill: none; stroke: #000000; stroke-width: 3"/>
    <path d="M 847.30602 460.017089 
L 1038.870845 476.818667 
" clip-path="url(#p04d69c98d0)" style="fill: none; stroke: #000000; stroke-width: 3"/>
    <path d="M 743.667154 307.568474 
L 819.373758 227.899551 
" clip-path="url(#p04d69c98d0)" style="fill: none; stroke: #000000; stroke-width: 3"/>
    <path d="M 743.667154 307.568474 
L 847.30602 460.017089 
" clip-path="url(#p04d69c98d0)" style="fill: none; stroke: #000000; stroke-width: 3"/>
    <path d="M 743.667154 307.568474 
L 719.145664 324.586212 
" clip-path="url(#p04d69c98d0)" style="fill: none; stroke: #000000; stroke-width: 3"/>
    <path d="M 743.667154 307.568474 
L 726.680918 290.248262 
" clip-path="url(#p04d69c98d0)" style="fill: none; stroke: #000000; stroke-width: 3"/>
    <path d="M 926.637942 199.295649 
L 1059.708703 293.809422 
" clip-path="url(#p04d69c98d0)" style="fill: none; stroke: #000000; stroke-width: 3"/>
    <path d="M 926.637942 199.295649 
L 743.667154 307.568474 
" clip-path="url(#p04d69c98d0)" style="fill: none; stroke: #000000; stroke-width: 3"/>
    <path d="M 926.637942 199.295649 
L 891.592552 147.132529 
" clip-path="url(#p04d69c98d0)" style="fill: none; stroke: #000000; stroke-width: 3"/>
    <path d="M 793.776834 462.195963 
L 847.30602 460.017089 
" clip-path="url(#p04d69c98d0)" style="fill: none; stroke: #000000; stroke-width: 3"/>
    <path d="M 793.776834 462.195963 
L 719.145664 324.586212 
" clip-path="url(#p04d69c98d0)" style="fill: none; stroke: #000000; stroke-width: 3"/>
    <path d="M 752.444694 161.576678 
L 658.090042 207.783491 
" clip-path="url(#p04d69c98d0)" style="fill: none; stroke: #000000; stroke-width: 3"/>
    <path d="M 752.444694 161.576678 
L 819.373758 227.899551 
" clip-path="url(#p04d69c98d0)" style="fill: none; stroke: #000000; stroke-width: 3"/>
    <path d="M 719.145664 324.586212 
L 743.667154 307.568474 
" clip-path="url(#p04d69c98d0)" style="fill: none; stroke: #000000; stroke-width: 3"/>
    <path d="M 719.145664 324.586212 
L 793.776834 462.195963 
" clip-path="url(#p04d69c98d0)" style="fill: none; stroke: #000000; stroke-width: 3"/>
    <path d="M 1038.870845 476.818667 
L 1059.708703 293.809422 
" clip-path="url(#p04d69c98d0)" style="fill: none; stroke: #000000; stroke-width: 3"/>
    <path d="M 1038.870845 476.818667 
L 847.30602 460.017089 
" clip-path="url(#p04d69c98d0)" style="fill: none; stroke: #000000; stroke-width: 3"/>
    <path d="M 891.592552 147.132529 
L 819.373758 227.899551 
" clip-path="url(#p04d69c98d0)" style="fill: none; stroke: #000000; stroke-width: 3"/>
    <path d="M 891.592552 147.132529 
L 926.637942 199.295649 
" clip-path="url(#p04d69c98d0)" style="fill: none; stroke: #000000; stroke-width: 3"/>
    <path d="M 726.680918 290.248262 
L 658.090042 207.783491 
" clip-path="url(#p04d69c98d0)" style="fill: none; stroke: #000000; stroke-width: 3"/>
    <path d="M 726.680918 290.248262 
L 743.667154 307.568474 
" clip-path="url(#p04d69c98d0)" style="fill: none; stroke: #000000; stroke-width: 3"/>
   </g>
   <g id="patch_3">
    <path d="M 658.090042 207.783491 
Q 700.431289 187.048381 739.760245 167.788433 
" style="fill: none; stroke: #000000; stroke-width: 3; stroke-linecap: round"/>
    <path d="M 731.710675 167.721922 
L 739.760245 167.788433 
L 734.877294 174.188183 
z
" style="stroke: #000000; stroke-width: 3; stroke-linecap: round"/>
   </g>
   <g id="patch_4">
    <path d="M 658.090042 207.783491 
Q 688.941074 244.87477 717.647259 279.387362 
" style="fill: none; stroke: #000000; stroke-width: 3; stroke-linecap: round"/>
    <path d="M 715.810811 271.549795 
L 717.647259 279.387362 
L 710.275336 276.15398 
z
" style="stroke: #000000; stroke-width: 3; stroke-linecap: round"/>
   </g>
   <g id="patch_5">
    <path d="M 819.373758 227.899551 
Q 785.229774 263.830557 753.396266 297.330162 
" style="fill: none; stroke: #000000; stroke-width: 3; stroke-linecap: round"/>
    <path d="M 760.965642 294.590719 
L 753.396266 297.330162 
L 755.746337 289.630995 
z
" style="stroke: #000000; stroke-width: 3; stroke-linecap: round"/>
   </g>
   <g id="patch_6">
    <path d="M 819.373758 227.899551 
Q 789.735874 198.530104 762.480463 171.521551 
" style="fill: none; stroke: #000000; stroke-width: 3; stroke-linecap: round"/>
    <path d="M 765.060762 179.146645 
L 762.480463 171.521551 
L 770.128717 174.032368 
z
" style="stroke: #000000; stroke-width: 3; stroke-linecap: round"/>
   </g>
   <g id="patch_7">
    <path d="M 819.373758 227.899551 
Q 925.559526 348.318769 1029.526929 466.222266 
" style="fill: none; stroke: #000000; stroke-width: 3; stroke-linecap: round"/>
    <path d="M 1027.465086 458.440955 
L 1029.526929 466.222266 
L 1022.064774 463.202954 
z
" style="stroke: #000000; stroke-width: 3; stroke-linecap: round"/>
   </g>
   <g id="patch_8">
    <path d="M 819.373758 227.899551 
Q 851.894034 191.529989 882.178611 157.660757 
" style="fill: none; stroke: #000000; stroke-width: 3; stroke-linecap: round"/>
    <path d="M 874.695767 160.628423 
L 882.178611 157.660757 
L 880.063038 165.427632 
z
" style="stroke: #000000; stroke-width: 3; stroke-linecap: round"/>
   </g>
   <g id="patch_9">
    <path d="M 1059.708703 293.809422 
Q 997.565291 249.67194 938.156432 207.476679 
" style="fill: none; stroke: #000000; stroke-width: 3; stroke-linecap: round"/>
    <path d="M 941.94188 214.58093 
L 938.156432 207.476679 
L 946.111102 208.71087 
z
" style="stroke: #000000; stroke-width: 3; stroke-linecap: round"/>
   </g>
   <g id="patch_10">
    <path d="M 1059.708703 293.809422 
Q 1049.899145 379.962219 1040.469041 462.782448 
" style="fill: none; stroke: #000000; stroke-width: 3; stroke-linecap: round"/>
    <path d="M 1044.860475 456.035944 
L 1040.469041 462.782448 
L 1037.706699 455.221399 
z
" style="stroke: #000000; stroke-width: 3; stroke-linecap: round"/>
   </g>
   <g id="patch_11">
    <path d="M 847.30602 460.017089 
Q 833.983257 349.304716 821.061224 241.922421 
" style="fill: none; stroke: #000000; stroke-width: 3; stroke-linecap: round"/>
    <path d="M 818.347228 249.500958 
L 821.061224 241.922421 
L 825.495656 248.64074 
z
" style="stroke: #000000; stroke-width: 3; stroke-linecap: round"/>
   </g>
   <g id="patch_12">
    <path d="M 847.30602 460.017089 
Q 825.924077 460.887428 807.893461 461.621354 
" style="fill: none; stroke: #000000; stroke-width: 3; stroke-linecap: round"/>
    <path d="M 815.233918 464.925546 
L 807.893461 461.621354 
L 814.941089 457.731503 
z
" style="stroke: #000000; stroke-width: 3; stroke-linecap: round"/>
   </g>
   <g id="patch_13">
    <path d="M 847.30602 460.017089 
Q 937.723179 467.947308 1024.799063 475.584473 
" style="fill: none; stroke: #000000; stroke-width: 3; stroke-linecap: round"/>
    <path d="M 1017.941135 471.369165 
L 1024.799063 475.584473 
L 1017.31206 478.54163 
z
" style="stroke: #000000; stroke-width: 3; stroke-linecap: round"/>
   </g>
   <g id="patch_14">
    <path d="M 743.667154 307.568474 
Q 777.811137 271.637469 809.644646 238.137864 
" style="fill: none; stroke: #000000; stroke-width: 3; stroke-linecap: round"/>
    <path d="M 802.07527 240.877307 
L 809.644646 238.137864 
L 807.294575 245.83703 
z
" style="stroke: #000000; stroke-width: 3; stroke-linecap: round"/>
   </g>
   <g id="patch_15">
    <path d="M 743.667154 307.568474 
Q 792.45899 379.339308 839.365106 448.336323 
" style="fill: none; stroke: #000000; stroke-width: 3; stroke-linecap: round"/>
    <path d="M 838.294347 440.358011 
L 839.365106 448.336323 
L 832.340001 444.405943 
z
" style="stroke: #000000; stroke-width: 3; stroke-linecap: round"/>
   </g>
   <g id="patch_16">
    <path d="M 743.667154 307.568474 
Q 735.832071 313.005966 730.752529 316.531131 
" style="fill: none; stroke: #000000; stroke-width: 3; stroke-linecap: round"/>
    <path d="M 738.720168 315.383641 
L 730.752529 316.531131 
L 734.615121 309.468526 
z
" style="stroke: #000000; stroke-width: 3; stroke-linecap: round"/>
   </g>
   <g id="patch_17">
    <path d="M 743.667154 307.568474 
Q 738.944723 302.753193 736.570801 300.332596 
" style="fill: none; stroke: #000000; stroke-width: 3; stroke-linecap: round"/>
    <path d="M 739.041923 307.993767 
L 736.570801 300.332596 
L 744.182412 302.9524 
z
" style="stroke: #000000; stroke-width: 3; stroke-linecap: round"/>
   </g>
   <g id="patch_18">
    <path d="M 926.637942 199.295649 
Q 988.781354 243.433131 1048.190214 285.628392 
" style="fill: none; stroke: #000000; stroke-width: 3; stroke-linecap: round"/>
    <path d="M 1044.404765 278.524141 
L 1048.190214 285.628392 
L 1040.235544 284.3942 
z
" style="stroke: #000000; stroke-width: 3; stroke-linecap: round"/>
   </g>
   <g id="patch_19">
    <path d="M 926.637942 199.295649 
Q 839.788519 250.688729 755.825669 300.373683 
" style="fill: none; stroke: #000000; stroke-width: 3; stroke-linecap: round"/>
    <path d="M 763.855413 299.805169 
L 755.825669 300.373683 
L 760.188704 293.608779 
z
" style="stroke: #000000; stroke-width: 3; stroke-linecap: round"/>
   </g>
   <g id="patch_20">
    <path d="M 926.637942 199.295649 
Q 912.119474 177.685713 899.47149 158.859891 
" style="fill: none; stroke: #000000; stroke-width: 3; stroke-linecap: round"/>
    <path d="M 900.498497 166.843954 
L 899.47149 158.859891 
L 906.474944 162.828724 
z
" style="stroke: #000000; stroke-width: 3; stroke-linecap: round"/>
   </g>
   <g id="patch_21">
    <path d="M 793.776834 462.195963 
Q 815.158777 461.325623 833.189394 460.591698 
" style="fill: none; stroke: #000000; stroke-width: 3; stroke-linecap: round"/>
    <path d="M 825.848936 457.287506 
L 833.189394 460.591698 
L 826.141766 464.481548 
z
" style="stroke: #000000; stroke-width: 3; stroke-linecap: round"/>
   </g>
   <g id="patch_22">
    <path d="M 793.776834 462.195963 
Q 759.029201 398.126042 725.880603 337.004525 
" style="fill: none; stroke: #000000; stroke-width: 3; stroke-linecap: round"/>
    <path d="M 726.148573 345.049908 
L 725.880603 337.004525 
L 732.477691 341.617379 
z
" style="stroke: #000000; stroke-width: 3; stroke-linecap: round"/>
   </g>
   <g id="patch_23">
    <path d="M 752.444694 161.576678 
Q 710.103447 182.311788 670.774491 201.571736 
" style="fill: none; stroke: #000000; stroke-width: 3; stroke-linecap: round"/>
    <path d="M 678.824061 201.638247 
L 670.774491 201.571736 
L 675.657442 195.171986 
z
" style="stroke: #000000; stroke-width: 3; stroke-linecap: round"/>
   </g>
   <g id="patch_24">
    <path d="M 752.444694 161.576678 
Q 782.082578 190.946125 809.337989 217.954678 
" style="fill: none; stroke: #000000; stroke-width: 3; stroke-linecap: round"/>
    <path d="M 806.75769 210.329584 
L 809.337989 217.954678 
L 801.689734 215.443861 
z
" style="stroke: #000000; stroke-width: 3; stroke-linecap: round"/>
   </g>
   <g id="patch_25">
    <path d="M 719.145664 324.586212 
Q 726.980747 319.148721 732.060288 315.623555 
" style="fill: none; stroke: #000000; stroke-width: 3; stroke-linecap: round"/>
    <path d="M 724.09265 316.771045 
L 732.060288 315.623555 
L 728.197697 322.68616 
z
" style="stroke: #000000; stroke-width: 3; stroke-linecap: round"/>
   </g>
   <g id="patch_26">
    <path d="M 719.145664 324.586212 
Q 753.893297 388.656133 787.041895 449.77765 
" style="fill: none; stroke: #000000; stroke-width: 3; stroke-linecap: round"/>
    <path d="M 786.773925 441.732266 
L 787.041895 449.77765 
L 780.444807 445.164796 
z
" style="stroke: #000000; stroke-width: 3; stroke-linecap: round"/>
   </g>
   <g id="patch_27">
    <path d="M 1038.870845 476.818667 
Q 1048.680403 390.66587 1058.110507 307.845641 
" style="fill: none; stroke: #000000; stroke-width: 3; stroke-linecap: round"/>
    <path d="M 1053.719073 314.592145 
L 1058.110507 307.845641 
L 1060.872849 315.40669 
z
" style="stroke: #000000; stroke-width: 3; stroke-linecap: round"/>
   </g>
   <g id="patch_28">
    <path d="M 1038.870845 476.818667 
Q 948.453686 468.888448 861.377802 461.251283 
" style="fill: none; stroke: #000000; stroke-width: 3; stroke-linecap: round"/>
    <path d="M 868.23573 465.466591 
L 861.377802 461.251283 
L 868.864805 458.294125 
z
" style="stroke: #000000; stroke-width: 3; stroke-linecap: round"/>
   </g>
   <g id="patch_29">
    <path d="M 891.592552 147.132529 
Q 859.072276 183.50209 828.787699 217.371323 
" style="fill: none; stroke: #000000; stroke-width: 3; stroke-linecap: round"/>
    <path d="M 836.270543 214.403656 
L 828.787699 217.371323 
L 830.903272 209.604448 
z
" style="stroke: #000000; stroke-width: 3; stroke-linecap: round"/>
   </g>
   <g id="patch_30">
    <path d="M 891.592552 147.132529 
Q 906.11102 168.742464 918.759004 187.568286 
" style="fill: none; stroke: #000000; stroke-width: 3; stroke-linecap: round"/>
    <path d="M 917.731997 179.584223 
L 918.759004 187.568286 
L 911.75555 183.599453 
z
" style="stroke: #000000; stroke-width: 3; stroke-linecap: round"/>
   </g>
   <g id="patch_31">
    <path d="M 726.680918 290.248262 
Q 695.829886 253.156983 667.123701 218.644391 
" style="fill: none; stroke: #000000; stroke-width: 3; stroke-linecap: round"/>
    <path d="M 668.960149 226.481958 
L 667.123701 218.644391 
L 674.495624 221.877773 
z
" style="stroke: #000000; stroke-width: 3; stroke-linecap: round"/>
   </g>
   <g id="patch_32">
    <path d="M 726.680918 290.248262 
Q 731.403349 295.063543 733.777271 297.484141 
" style="fill: none; stroke: #000000; stroke-width: 3; stroke-linecap: round"/>
    <path d="M 731.306149 289.822969 
L 733.777271 297.484141 
L 726.16566 294.864336 
z
" style="stroke: #000000; stroke-width: 3; stroke-linecap: round"/>
   </g>
   <g id="PathCollection_2">
    <defs>
     <path id="C1_0_ad2000a23b" d="M 0 8.660254 
C 2.296726 8.660254 4.499694 7.747755 6.123724 6.123724 
C 7.747755 4.499694 8.660254 2.296726 8.660254 -0 
C 8.660254 -2.296726 7.747755 -4.499694 6.123724 -6.123724 
C 4.499694 -7.747755 2.296726 -8.660254 0 -8.660254 
C -2.296726 -8.660254 -4.499694 -7.747755 -6.123724 -6.123724 
C -7.747755 -4.499694 -8.660254 -2.296726 -8.660254 0 
C -8.660254 2.296726 -7.747755 4.499694 -6.123724 6.123724 
C -4.499694 7.747755 -2.296726 8.660254 0 8.660254 
z
"/>
    </defs>
    <g clip-path="url(#p04d69c98d0)">
     <use xlink:href="#C1_0_ad2000a23b" x="658.090042" y="207.783491" style="fill: #ffe599; stroke: #000000; stroke-width: 3"/>
    </g>
    <g clip-path="url(#p04d69c98d0)">
     <use xlink:href="#C1_0_ad2000a23b" x="819.373758" y="227.899551" style="fill: #ffe599; stroke: #000000; stroke-width: 3"/>
    </g>
    <g clip-path="url(#p04d69c98d0)">
     <use xlink:href="#C1_0_ad2000a23b" x="1059.708703" y="293.809422" style="fill: #ffe599; stroke: #000000; stroke-width: 3"/>
    </g>
    <g clip-path="url(#p04d69c98d0)">
     <use xlink:href="#C1_0_ad2000a23b" x="847.30602" y="460.017089" style="fill: #ffe599; stroke: #000000; stroke-width: 3"/>
    </g>
    <g clip-path="url(#p04d69c98d0)">
     <use xlink:href="#C1_0_ad2000a23b" x="743.667154" y="307.568474" style="fill: #ffe599; stroke: #000000; stroke-width: 3"/>
    </g>
    <g clip-path="url(#p04d69c98d0)">
     <use xlink:href="#C1_0_ad2000a23b" x="926.637942" y="199.295649" style="fill: #ffe599; stroke: #000000; stroke-width: 3"/>
    </g>
    <g clip-path="url(#p04d69c98d0)">
     <use xlink:href="#C1_0_ad2000a23b" x="793.776834" y="462.195963" style="fill: #ffe599; stroke: #000000; stroke-width: 3"/>
    </g>
    <g clip-path="url(#p04d69c98d0)">
     <use xlink:href="#C1_0_ad2000a23b" x="752.444694" y="161.576678" style="fill: #ffe599; stroke: #000000; stroke-width: 3"/>
    </g>
    <g clip-path="url(#p04d69c98d0)">
     <use xlink:href="#C1_0_ad2000a23b" x="719.145664" y="324.586212" style="fill: #ffe599; stroke: #000000; stroke-width: 3"/>
    </g>
    <g clip-path="url(#p04d69c98d0)">
     <use xlink:href="#C1_0_ad2000a23b" x="1038.870845" y="476.818667" style="fill: #ffe599; stroke: #000000; stroke-width: 3"/>
    </g>
    <g clip-path="url(#p04d69c98d0)">
     <use xlink:href="#C1_0_ad2000a23b" x="891.592552" y="147.132529" style="fill: #ffe599; stroke: #000000; stroke-width: 3"/>
    </g>
    <g clip-path="url(#p04d69c98d0)">
     <use xlink:href="#C1_0_ad2000a23b" x="726.680918" y="290.248262" style="fill: #ffe599; stroke: #000000; stroke-width: 3"/>
    </g>
   </g>
   <g id="patch_33">
    <path d="M 625.960549 568.208304 
L 1091.838196 568.208304 
Q 1115.132078 568.208304 1115.132078 544.914421 
L 1115.132078 79.036774 
Q 1115.132078 55.742892 1091.838196 55.742892 
L 625.960549 55.742892 
Q 602.666667 55.742892 602.666667 79.036774 
L 602.666667 544.914421 
Q 602.666667 568.208304 625.960549 568.208304 
L 625.960549 568.208304 
z
" style="fill: none; stroke: #000000; stroke-width: 4.5"/>
   </g>
   <g id="text_2">
    <!-- MRNG -->
    <g transform="translate(802.737498 35.766562) scale(0.42 -0.42)">
     <defs>
      <path id="Calibri-4d" d="M 4934 81 
Q 4934 56 4921 37 
Q 4909 19 4878 8 
Q 4847 -3 4798 -11 
Q 4750 -19 4672 -19 
Q 4600 -19 4548 -11 
Q 4497 -3 4467 8 
Q 4438 19 4425 37 
Q 4413 56 4413 81 
L 4413 3603 
L 4406 3603 
L 2966 66 
Q 2956 44 2939 28 
Q 2922 13 2889 2 
Q 2856 -9 2811 -14 
Q 2766 -19 2703 -19 
Q 2638 -19 2591 -12 
Q 2544 -6 2512 5 
Q 2481 16 2464 31 
Q 2447 47 2441 66 
L 1063 3603 
L 1059 3603 
L 1059 81 
Q 1059 56 1046 37 
Q 1034 19 1003 8 
Q 972 -3 922 -11 
Q 872 -19 794 -19 
Q 719 -19 669 -11 
Q 619 -3 589 8 
Q 559 19 548 37 
Q 538 56 538 81 
L 538 3800 
Q 538 3931 606 3987 
Q 675 4044 759 4044 
L 1084 4044 
Q 1184 4044 1259 4025 
Q 1334 4006 1390 3965 
Q 1447 3925 1484 3862 
Q 1522 3800 1550 3716 
L 2722 788 
L 2738 788 
L 3956 3706 
Q 3991 3800 4031 3865 
Q 4072 3931 4120 3970 
Q 4169 4009 4228 4026 
Q 4288 4044 4366 4044 
L 4706 4044 
Q 4753 4044 4795 4030 
Q 4838 4016 4867 3986 
Q 4897 3956 4915 3911 
Q 4934 3866 4934 3800 
L 4934 81 
z
" transform="scale(0.015625)"/>
     </defs>
     <use xlink:href="#Calibri-4d"/>
     <use xlink:href="#Calibri-52" transform="translate(85.498047 0)"/>
     <use xlink:href="#Calibri-4e" transform="translate(139.794922 0)"/>
     <use xlink:href="#Calibri-47" transform="translate(204.345703 0)"/>
    </g>
   </g>
  </g>
  <g id="axes_3">
   <g id="LineCollection_3">
    <path d="M 1253.556709 207.783491 
L 1314.61233 324.586212 
" clip-path="url(#p4adaade489)" style="fill: none; stroke: #000000; stroke-width: 3"/>
    <path d="M 1253.556709 207.783491 
L 1347.911361 161.576678 
" clip-path="url(#p4adaade489)" style="fill: none; stroke: #000000; stroke-width: 3"/>
    <path d="M 1253.556709 207.783491 
L 1322.147585 290.248262 
" clip-path="url(#p4adaade489)" style="fill: none; stroke: #000000; stroke-width: 3"/>
    <path d="M 1414.840424 227.899551 
L 1442.772687 460.017089 
" clip-path="url(#p4adaade489)" style="fill: none; stroke: #000000; stroke-width: 3"/>
    <path d="M 1414.840424 227.899551 
L 1522.104609 199.295649 
" clip-path="url(#p4adaade489)" style="fill: none; stroke: #000000; stroke-width: 3"/>
    <path d="M 1414.840424 227.899551 
L 1347.911361 161.576678 
" clip-path="url(#p4adaade489)" style="fill: none; stroke: #000000; stroke-width: 3"/>
    <path d="M 1414.840424 227.899551 
L 1322.147585 290.248262 
" clip-path="url(#p4adaade489)" style="fill: none; stroke: #000000; stroke-width: 3"/>
    <path d="M 1414.840424 227.899551 
L 1339.133821 307.568474 
" clip-path="url(#p4adaade489)" style="fill: none; stroke: #000000; stroke-width: 3"/>
    <path d="M 1414.840424 227.899551 
L 1487.059219 147.132529 
" clip-path="url(#p4adaade489)" style="fill: none; stroke: #000000; stroke-width: 3"/>
    <path d="M 1655.17537 293.809422 
L 1634.337511 476.818667 
" clip-path="url(#p4adaade489)" style="fill: none; stroke: #000000; stroke-width: 3"/>
    <path d="M 1655.17537 293.809422 
L 1487.059219 147.132529 
" clip-path="url(#p4adaade489)" style="fill: none; stroke: #000000; stroke-width: 3"/>
    <path d="M 1655.17537 293.809422 
L 1442.772687 460.017089 
" clip-path="url(#p4adaade489)" style="fill: none; stroke: #000000; stroke-width: 3"/>
    <path d="M 1655.17537 293.809422 
L 1522.104609 199.295649 
" clip-path="url(#p4adaade489)" style="fill: none; stroke: #000000; stroke-width: 3"/>
    <path d="M 1442.772687 460.017089 
L 1339.133821 307.568474 
" clip-path="url(#p4adaade489)" style="fill: none; stroke: #000000; stroke-width: 3"/>
    <path d="M 1442.772687 460.017089 
L 1634.337511 476.818667 
" clip-path="url(#p4adaade489)" style="fill: none; stroke: #000000; stroke-width: 3"/>
    <path d="M 1442.772687 460.017089 
L 1389.243501 462.195963 
" clip-path="url(#p4adaade489)" style="fill: none; stroke: #000000; stroke-width: 3"/>
    <path d="M 1442.772687 460.017089 
L 1522.104609 199.295649 
" clip-path="url(#p4adaade489)" style="fill: none; stroke: #000000; stroke-width: 3"/>
    <path d="M 1339.133821 307.568474 
L 1389.243501 462.195963 
" clip-path="url(#p4adaade489)" style="fill: none; stroke: #000000; stroke-width: 3"/>
    <path d="M 1339.133821 307.568474 
L 1314.61233 324.586212 
" clip-path="url(#p4adaade489)" style="fill: none; stroke: #000000; stroke-width: 3"/>
    <path d="M 1339.133821 307.568474 
L 1322.147585 290.248262 
" clip-path="url(#p4adaade489)" style="fill: none; stroke: #000000; stroke-width: 3"/>
    <path d="M 1522.104609 199.295649 
L 1487.059219 147.132529 
" clip-path="url(#p4adaade489)" style="fill: none; stroke: #000000; stroke-width: 3"/>
    <path d="M 1389.243501 462.195963 
L 1314.61233 324.586212 
" clip-path="url(#p4adaade489)" style="fill: none; stroke: #000000; stroke-width: 3"/>
    <path d="M 1389.243501 462.195963 
L 1634.337511 476.818667 
" clip-path="url(#p4adaade489)" style="fill: none; stroke: #000000; stroke-width: 3"/>
    <path d="M 1347.911361 161.576678 
L 1322.147585 290.248262 
" clip-path="url(#p4adaade489)" style="fill: none; stroke: #000000; stroke-width: 3"/>
    <path d="M 1347.911361 161.576678 
L 1487.059219 147.132529 
" clip-path="url(#p4adaade489)" style="fill: none; stroke: #000000; stroke-width: 3"/>
    <path d="M 1314.61233 324.586212 
L 1322.147585 290.248262 
" clip-path="url(#p4adaade489)" style="fill: none; stroke: #000000; stroke-width: 3"/>
   </g>
   <g id="PathCollection_3">
    <defs>
     <path id="C2_0_98594d8e90" d="M 0 8.660254 
C 2.296726 8.660254 4.499694 7.747755 6.123724 6.123724 
C 7.747755 4.499694 8.660254 2.296726 8.660254 -0 
C 8.660254 -2.296726 7.747755 -4.499694 6.123724 -6.123724 
C 4.499694 -7.747755 2.296726 -8.660254 0 -8.660254 
C -2.296726 -8.660254 -4.499694 -7.747755 -6.123724 -6.123724 
C -7.747755 -4.499694 -8.660254 -2.296726 -8.660254 0 
C -8.660254 2.296726 -7.747755 4.499694 -6.123724 6.123724 
C -4.499694 7.747755 -2.296726 8.660254 0 8.660254 
z
"/>
    </defs>
    <g clip-path="url(#p4adaade489)">
     <use xlink:href="#C2_0_98594d8e90" x="1253.556709" y="207.783491" style="fill: #ffe599; stroke: #000000; stroke-width: 3"/>
    </g>
    <g clip-path="url(#p4adaade489)">
     <use xlink:href="#C2_0_98594d8e90" x="1414.840424" y="227.899551" style="fill: #ffe599; stroke: #000000; stroke-width: 3"/>
    </g>
    <g clip-path="url(#p4adaade489)">
     <use xlink:href="#C2_0_98594d8e90" x="1655.17537" y="293.809422" style="fill: #ffe599; stroke: #000000; stroke-width: 3"/>
    </g>
    <g clip-path="url(#p4adaade489)">
     <use xlink:href="#C2_0_98594d8e90" x="1442.772687" y="460.017089" style="fill: #ffe599; stroke: #000000; stroke-width: 3"/>
    </g>
    <g clip-path="url(#p4adaade489)">
     <use xlink:href="#C2_0_98594d8e90" x="1339.133821" y="307.568474" style="fill: #ffe599; stroke: #000000; stroke-width: 3"/>
    </g>
    <g clip-path="url(#p4adaade489)">
     <use xlink:href="#C2_0_98594d8e90" x="1522.104609" y="199.295649" style="fill: #ffe599; stroke: #000000; stroke-width: 3"/>
    </g>
    <g clip-path="url(#p4adaade489)">
     <use xlink:href="#C2_0_98594d8e90" x="1389.243501" y="462.195963" style="fill: #ffe599; stroke: #000000; stroke-width: 3"/>
    </g>
    <g clip-path="url(#p4adaade489)">
     <use xlink:href="#C2_0_98594d8e90" x="1347.911361" y="161.576678" style="fill: #ffe599; stroke: #000000; stroke-width: 3"/>
    </g>
    <g clip-path="url(#p4adaade489)">
     <use xlink:href="#C2_0_98594d8e90" x="1314.61233" y="324.586212" style="fill: #ffe599; stroke: #000000; stroke-width: 3"/>
    </g>
    <g clip-path="url(#p4adaade489)">
     <use xlink:href="#C2_0_98594d8e90" x="1634.337511" y="476.818667" style="fill: #ffe599; stroke: #000000; stroke-width: 3"/>
    </g>
    <g clip-path="url(#p4adaade489)">
     <use xlink:href="#C2_0_98594d8e90" x="1487.059219" y="147.132529" style="fill: #ffe599; stroke: #000000; stroke-width: 3"/>
    </g>
    <g clip-path="url(#p4adaade489)">
     <use xlink:href="#C2_0_98594d8e90" x="1322.147585" y="290.248262" style="fill: #ffe599; stroke: #000000; stroke-width: 3"/>
    </g>
   </g>
   <g id="patch_34">
    <path d="M 1221.427216 568.208304 
L 1687.304863 568.208304 
Q 1710.598745 568.208304 1710.598745 544.914421 
L 1710.598745 79.036774 
Q 1710.598745 55.742892 1687.304863 55.742892 
L 1221.427216 55.742892 
Q 1198.133333 55.742892 1198.133333 79.036774 
L 1198.133333 544.914421 
Q 1198.133333 568.208304 1221.427216 568.208304 
L 1221.427216 568.208304 
z
" style="fill: none; stroke: #000000; stroke-width: 4.5"/>
   </g>
   <g id="text_3">
    <!-- DG -->
    <g transform="translate(1428.194789 35.766562) scale(0.42 -0.42)">
     <defs>
      <path id="Calibri-44" d="M 3647 2081 
Q 3647 1556 3512 1164 
Q 3378 772 3120 514 
Q 2863 256 2488 128 
Q 2113 0 1594 0 
L 738 0 
Q 666 0 602 48 
Q 538 97 538 219 
L 538 3825 
Q 538 3947 602 3995 
Q 666 4044 738 4044 
L 1653 4044 
Q 2178 4044 2540 3908 
Q 2903 3772 3148 3517 
Q 3394 3263 3520 2900 
Q 3647 2538 3647 2081 
z
M 3081 2059 
Q 3081 2388 3000 2670 
Q 2919 2953 2745 3159 
Q 2572 3366 2306 3481 
Q 2041 3597 1622 3597 
L 1075 3597 
L 1075 450 
L 1628 450 
Q 2016 450 2281 547 
Q 2547 644 2725 844 
Q 2903 1044 2992 1345 
Q 3081 1647 3081 2059 
z
" transform="scale(0.015625)"/>
     </defs>
     <use xlink:href="#Calibri-44"/>
     <use xlink:href="#Calibri-47" transform="translate(61.523438 0)"/>
    </g>
   </g>
  </g>
  <g id="axes_4">
   <g id="LineCollection_4">
    <path d="M 62.623375 810.654079 
L 198.310168 1065.066551 
" clip-path="url(#p4cefdbdc45)" style="fill: none; stroke: #000000; stroke-width: 3"/>
    <path d="M 62.623375 810.654079 
L 296.125885 750.003117 
" clip-path="url(#p4cefdbdc45)" style="fill: none; stroke: #000000; stroke-width: 3"/>
    <path d="M 464.242037 896.68001 
L 123.678997 927.4568 
" clip-path="url(#p4cefdbdc45)" style="fill: none; stroke: #000000; stroke-width: 3"/>
    <path d="M 148.200487 910.439063 
L 443.404178 1079.689255 
" clip-path="url(#p4cefdbdc45)" style="fill: none; stroke: #000000; stroke-width: 3"/>
    <path d="M 331.171276 802.166237 
L 443.404178 1079.689255 
" clip-path="url(#p4cefdbdc45)" style="fill: none; stroke: #000000; stroke-width: 3"/>
    <path d="M 198.310168 1065.066551 
L 131.214251 893.11885 
" clip-path="url(#p4cefdbdc45)" style="fill: none; stroke: #000000; stroke-width: 3"/>
    <path d="M 156.978027 764.447266 
L 123.678997 927.4568 
" clip-path="url(#p4cefdbdc45)" style="fill: none; stroke: #000000; stroke-width: 3"/>
   </g>
   <g id="LineCollection_5">
    <path d="M 62.623375 810.654079 
L 156.978027 764.447266 
" clip-path="url(#p4cefdbdc45)" style="fill: none; stroke: #008000; stroke-width: 3"/>
    <path d="M 62.623375 810.654079 
L 131.214251 893.11885 
" clip-path="url(#p4cefdbdc45)" style="fill: none; stroke: #008000; stroke-width: 3"/>
    <path d="M 223.907091 830.770139 
L 148.200487 910.439063 
" clip-path="url(#p4cefdbdc45)" style="fill: none; stroke: #008000; stroke-width: 3"/>
    <path d="M 223.907091 830.770139 
L 156.978027 764.447266 
" clip-path="url(#p4cefdbdc45)" style="fill: none; stroke: #008000; stroke-width: 3"/>
    <path d="M 223.907091 830.770139 
L 296.125885 750.003117 
" clip-path="url(#p4cefdbdc45)" style="fill: none; stroke: #008000; stroke-width: 3"/>
    <path d="M 464.242037 896.68001 
L 331.171276 802.166237 
" clip-path="url(#p4cefdbdc45)" style="fill: none; stroke: #008000; stroke-width: 3"/>
    <path d="M 464.242037 896.68001 
L 443.404178 1079.689255 
" clip-path="url(#p4cefdbdc45)" style="fill: none; stroke: #008000; stroke-width: 3"/>
    <path d="M 251.839353 1062.887677 
L 198.310168 1065.066551 
" clip-path="url(#p4cefdbdc45)" style="fill: none; stroke: #008000; stroke-width: 3"/>
    <path d="M 251.839353 1062.887677 
L 443.404178 1079.689255 
" clip-path="url(#p4cefdbdc45)" style="fill: none; stroke: #008000; stroke-width: 3"/>
    <path d="M 148.200487 910.439063 
L 123.678997 927.4568 
" clip-path="url(#p4cefdbdc45)" style="fill: none; stroke: #008000; stroke-width: 3"/>
    <path d="M 148.200487 910.439063 
L 131.214251 893.11885 
" clip-path="url(#p4cefdbdc45)" style="fill: none; stroke: #008000; stroke-width: 3"/>
    <path d="M 331.171276 802.166237 
L 296.125885 750.003117 
" clip-path="url(#p4cefdbdc45)" style="fill: none; stroke: #008000; stroke-width: 3"/>
    <path d="M 198.310168 1065.066551 
L 123.678997 927.4568 
" clip-path="url(#p4cefdbdc45)" style="fill: none; stroke: #008000; stroke-width: 3"/>
   </g>
   <g id="LineCollection_6">
    <path d="M 223.907091 830.770139 
L 251.839353 1062.887677 
" clip-path="url(#p4cefdbdc45)" style="fill: none; stroke: #ff0000; stroke-width: 3"/>
   </g>
   <g id="LineCollection_7">
    <path d="M 464.242037 896.68001 
L 296.125885 750.003117 
" clip-path="url(#p4cefdbdc45)" style="fill: none; stroke: #0000ff; stroke-width: 3"/>
    <path d="M 251.839353 1062.887677 
L 331.171276 802.166237 
" clip-path="url(#p4cefdbdc45)" style="fill: none; stroke: #0000ff; stroke-width: 3"/>
    <path d="M 156.978027 764.447266 
L 131.214251 893.11885 
" clip-path="url(#p4cefdbdc45)" style="fill: none; stroke: #0000ff; stroke-width: 3"/>
   </g>
   <g id="PathCollection_4">
    <defs>
     <path id="C3_0_b179f8c8e0" d="M 0 8.660254 
C 2.296726 8.660254 4.499694 7.747755 6.123724 6.123724 
C 7.747755 4.499694 8.660254 2.296726 8.660254 -0 
C 8.660254 -2.296726 7.747755 -4.499694 6.123724 -6.123724 
C 4.499694 -7.747755 2.296726 -8.660254 0 -8.660254 
C -2.296726 -8.660254 -4.499694 -7.747755 -6.123724 -6.123724 
C -7.747755 -4.499694 -8.660254 -2.296726 -8.660254 0 
C -8.660254 2.296726 -7.747755 4.499694 -6.123724 6.123724 
C -4.499694 7.747755 -2.296726 8.660254 0 8.660254 
z
"/>
    </defs>
    <g clip-path="url(#p4cefdbdc45)">
     <use xlink:href="#C3_0_b179f8c8e0" x="62.623375" y="810.654079" style="fill: #ffe599; stroke: #000000; stroke-width: 3"/>
    </g>
    <g clip-path="url(#p4cefdbdc45)">
     <use xlink:href="#C3_0_b179f8c8e0" x="223.907091" y="830.770139" style="fill: #ffe599; stroke: #000000; stroke-width: 3"/>
    </g>
    <g clip-path="url(#p4cefdbdc45)">
     <use xlink:href="#C3_0_b179f8c8e0" x="464.242037" y="896.68001" style="fill: #ffe599; stroke: #000000; stroke-width: 3"/>
    </g>
    <g clip-path="url(#p4cefdbdc45)">
     <use xlink:href="#C3_0_b179f8c8e0" x="251.839353" y="1062.887677" style="fill: #ffe599; stroke: #000000; stroke-width: 3"/>
    </g>
    <g clip-path="url(#p4cefdbdc45)">
     <use xlink:href="#C3_0_b179f8c8e0" x="148.200487" y="910.439063" style="fill: #ffe599; stroke: #000000; stroke-width: 3"/>
    </g>
    <g clip-path="url(#p4cefdbdc45)">
     <use xlink:href="#C3_0_b179f8c8e0" x="331.171276" y="802.166237" style="fill: #ffe599; stroke: #000000; stroke-width: 3"/>
    </g>
    <g clip-path="url(#p4cefdbdc45)">
     <use xlink:href="#C3_0_b179f8c8e0" x="198.310168" y="1065.066551" style="fill: #ffe599; stroke: #000000; stroke-width: 3"/>
    </g>
    <g clip-path="url(#p4cefdbdc45)">
     <use xlink:href="#C3_0_b179f8c8e0" x="156.978027" y="764.447266" style="fill: #ffe599; stroke: #000000; stroke-width: 3"/>
    </g>
    <g clip-path="url(#p4cefdbdc45)">
     <use xlink:href="#C3_0_b179f8c8e0" x="123.678997" y="927.4568" style="fill: #ffe599; stroke: #000000; stroke-width: 3"/>
    </g>
    <g clip-path="url(#p4cefdbdc45)">
     <use xlink:href="#C3_0_b179f8c8e0" x="443.404178" y="1079.689255" style="fill: #ffe599; stroke: #000000; stroke-width: 3"/>
    </g>
    <g clip-path="url(#p4cefdbdc45)">
     <use xlink:href="#C3_0_b179f8c8e0" x="296.125885" y="750.003117" style="fill: #ffe599; stroke: #000000; stroke-width: 3"/>
    </g>
    <g clip-path="url(#p4cefdbdc45)">
     <use xlink:href="#C3_0_b179f8c8e0" x="131.214251" y="893.11885" style="fill: #ffe599; stroke: #000000; stroke-width: 3"/>
    </g>
   </g>
   <g id="patch_35">
    <path d="M 30.493882 1171.078892 
L 496.371529 1171.078892 
Q 519.665412 1171.078892 519.665412 1147.78501 
L 519.665412 681.907362 
Q 519.665412 658.61348 496.371529 658.61348 
L 30.493882 658.61348 
Q 7.2 658.61348 7.2 681.907362 
L 7.2 1147.78501 
Q 7.2 1171.078892 30.493882 1171.078892 
L 30.493882 1171.078892 
z
" style="fill: none; stroke: #000000; stroke-width: 4.5"/>
   </g>
   <g id="text_4">
    <!-- crEG scheme (C) -->
    <g transform="translate(124.734268 638.637151) scale(0.42 -0.42)">
     <defs>
      <path id="Calibri-63" d="M 2500 506 
Q 2500 453 2497 414 
Q 2494 375 2486 348 
Q 2478 322 2467 301 
Q 2456 281 2417 242 
Q 2378 203 2284 145 
Q 2191 88 2073 42 
Q 1956 -3 1818 -31 
Q 1681 -59 1534 -59 
Q 1231 -59 997 41 
Q 763 141 605 333 
Q 447 525 364 804 
Q 281 1084 281 1450 
Q 281 1866 382 2164 
Q 484 2463 661 2653 
Q 838 2844 1077 2936 
Q 1316 3028 1594 3028 
Q 1728 3028 1854 3003 
Q 1981 2978 2087 2937 
Q 2194 2897 2276 2844 
Q 2359 2791 2396 2753 
Q 2434 2716 2448 2694 
Q 2463 2672 2472 2642 
Q 2481 2613 2484 2575 
Q 2488 2538 2488 2481 
Q 2488 2359 2459 2311 
Q 2431 2263 2391 2263 
Q 2344 2263 2283 2314 
Q 2222 2366 2128 2428 
Q 2034 2491 1901 2542 
Q 1769 2594 1588 2594 
Q 1216 2594 1017 2308 
Q 819 2022 819 1478 
Q 819 1206 870 1001 
Q 922 797 1022 659 
Q 1122 522 1267 455 
Q 1413 388 1600 388 
Q 1778 388 1912 444 
Q 2047 500 2145 567 
Q 2244 634 2311 689 
Q 2378 744 2416 744 
Q 2438 744 2453 731 
Q 2469 719 2480 689 
Q 2491 659 2495 614 
Q 2500 569 2500 506 
z
" transform="scale(0.015625)"/>
      <path id="Calibri-72" d="M 2122 2706 
Q 2122 2638 2119 2591 
Q 2116 2544 2106 2517 
Q 2097 2491 2083 2477 
Q 2069 2463 2044 2463 
Q 2019 2463 1983 2477 
Q 1947 2491 1901 2505 
Q 1856 2519 1800 2531 
Q 1744 2544 1678 2544 
Q 1600 2544 1525 2512 
Q 1450 2481 1367 2409 
Q 1284 2338 1193 2219 
Q 1103 2100 994 1928 
L 994 78 
Q 994 53 981 36 
Q 969 19 941 6 
Q 913 -6 863 -12 
Q 813 -19 734 -19 
Q 659 -19 609 -12 
Q 559 -6 529 6 
Q 500 19 489 36 
Q 478 53 478 78 
L 478 2891 
Q 478 2916 487 2933 
Q 497 2950 525 2964 
Q 553 2978 597 2983 
Q 641 2988 713 2988 
Q 781 2988 826 2983 
Q 872 2978 897 2964 
Q 922 2950 933 2933 
Q 944 2916 944 2891 
L 944 2481 
Q 1059 2650 1161 2756 
Q 1263 2863 1353 2923 
Q 1444 2984 1533 3007 
Q 1622 3031 1713 3031 
Q 1753 3031 1804 3026 
Q 1856 3022 1912 3009 
Q 1969 2997 2014 2981 
Q 2059 2966 2078 2950 
Q 2097 2934 2103 2920 
Q 2109 2906 2114 2884 
Q 2119 2863 2120 2820 
Q 2122 2778 2122 2706 
z
" transform="scale(0.015625)"/>
      <path id="Calibri-45" d="M 2788 222 
Q 2788 166 2781 123 
Q 2775 81 2759 53 
Q 2744 25 2723 12 
Q 2703 0 2678 0 
L 738 0 
Q 666 0 602 48 
Q 538 97 538 219 
L 538 3825 
Q 538 3947 602 3995 
Q 666 4044 738 4044 
L 2656 4044 
Q 2681 4044 2701 4031 
Q 2722 4019 2734 3991 
Q 2747 3963 2755 3920 
Q 2763 3878 2763 3816 
Q 2763 3759 2755 3717 
Q 2747 3675 2734 3648 
Q 2722 3622 2701 3609 
Q 2681 3597 2656 3597 
L 1075 3597 
L 1075 2328 
L 2431 2328 
Q 2456 2328 2476 2314 
Q 2497 2300 2511 2275 
Q 2525 2250 2531 2206 
Q 2538 2163 2538 2103 
Q 2538 2047 2531 2006 
Q 2525 1966 2511 1941 
Q 2497 1916 2476 1905 
Q 2456 1894 2431 1894 
L 1075 1894 
L 1075 447 
L 2678 447 
Q 2703 447 2723 434 
Q 2744 422 2759 395 
Q 2775 369 2781 326 
Q 2788 284 2788 222 
z
" transform="scale(0.015625)"/>
      <path id="Calibri-20" transform="scale(0.015625)"/>
      <path id="Calibri-73" d="M 2244 844 
Q 2244 628 2164 459 
Q 2084 291 1937 175 
Q 1791 59 1587 0 
Q 1384 -59 1141 -59 
Q 991 -59 855 -36 
Q 719 -13 611 23 
Q 503 59 428 98 
Q 353 138 318 169 
Q 284 200 268 256 
Q 253 313 253 409 
Q 253 469 259 509 
Q 266 550 275 575 
Q 284 600 301 611 
Q 319 622 341 622 
Q 375 622 442 580 
Q 509 538 607 488 
Q 706 438 840 395 
Q 975 353 1150 353 
Q 1281 353 1387 381 
Q 1494 409 1572 464 
Q 1650 519 1692 603 
Q 1734 688 1734 803 
Q 1734 922 1673 1003 
Q 1613 1084 1513 1146 
Q 1413 1209 1288 1257 
Q 1163 1306 1030 1359 
Q 897 1413 770 1480 
Q 644 1547 544 1644 
Q 444 1741 383 1875 
Q 322 2009 322 2197 
Q 322 2363 386 2514 
Q 450 2666 578 2780 
Q 706 2894 898 2962 
Q 1091 3031 1347 3031 
Q 1459 3031 1571 3012 
Q 1684 2994 1775 2966 
Q 1866 2938 1930 2905 
Q 1994 2872 2026 2847 
Q 2059 2822 2070 2803 
Q 2081 2784 2086 2761 
Q 2091 2738 2095 2703 
Q 2100 2669 2100 2619 
Q 2100 2566 2095 2527 
Q 2091 2488 2080 2463 
Q 2069 2438 2053 2427 
Q 2038 2416 2019 2416 
Q 1991 2416 1937 2450 
Q 1884 2484 1800 2523 
Q 1716 2563 1602 2597 
Q 1488 2631 1341 2631 
Q 1209 2631 1109 2601 
Q 1009 2572 945 2517 
Q 881 2463 848 2388 
Q 816 2313 816 2225 
Q 816 2103 878 2020 
Q 941 1938 1041 1875 
Q 1141 1813 1269 1763 
Q 1397 1713 1530 1659 
Q 1663 1606 1792 1540 
Q 1922 1475 2022 1381 
Q 2122 1288 2183 1156 
Q 2244 1025 2244 844 
z
" transform="scale(0.015625)"/>
      <path id="Calibri-68" d="M 2900 78 
Q 2900 53 2887 36 
Q 2875 19 2847 6 
Q 2819 -6 2769 -12 
Q 2719 -19 2644 -19 
Q 2566 -19 2516 -12 
Q 2466 -6 2437 6 
Q 2409 19 2396 36 
Q 2384 53 2384 78 
L 2384 1725 
Q 2384 1966 2346 2112 
Q 2309 2259 2237 2365 
Q 2166 2472 2052 2528 
Q 1938 2584 1788 2584 
Q 1594 2584 1400 2446 
Q 1206 2309 994 2044 
L 994 78 
Q 994 53 981 36 
Q 969 19 941 6 
Q 913 -6 863 -12 
Q 813 -19 734 -19 
Q 659 -19 609 -12 
Q 559 -6 529 6 
Q 500 19 489 36 
Q 478 53 478 78 
L 478 4253 
Q 478 4278 489 4297 
Q 500 4316 529 4328 
Q 559 4341 609 4347 
Q 659 4353 734 4353 
Q 813 4353 863 4347 
Q 913 4341 941 4328 
Q 969 4316 981 4297 
Q 994 4278 994 4253 
L 994 2569 
Q 1216 2803 1441 2917 
Q 1666 3031 1894 3031 
Q 2175 3031 2367 2936 
Q 2559 2841 2678 2681 
Q 2797 2522 2848 2308 
Q 2900 2094 2900 1791 
L 2900 78 
z
" transform="scale(0.015625)"/>
      <path id="Calibri-65" d="M 2878 1606 
Q 2878 1484 2817 1432 
Q 2756 1381 2678 1381 
L 834 1381 
Q 834 1147 881 959 
Q 928 772 1037 637 
Q 1147 503 1322 431 
Q 1497 359 1750 359 
Q 1950 359 2106 392 
Q 2263 425 2377 465 
Q 2491 506 2564 539 
Q 2638 572 2675 572 
Q 2697 572 2714 561 
Q 2731 550 2740 528 
Q 2750 506 2754 467 
Q 2759 428 2759 372 
Q 2759 331 2756 301 
Q 2753 272 2748 248 
Q 2744 225 2733 206 
Q 2722 188 2705 170 
Q 2688 153 2603 114 
Q 2519 75 2384 37 
Q 2250 0 2073 -29 
Q 1897 -59 1697 -59 
Q 1350 -59 1089 37 
Q 828 134 650 325 
Q 472 516 381 803 
Q 291 1091 291 1472 
Q 291 1834 384 2123 
Q 478 2413 654 2614 
Q 831 2816 1081 2923 
Q 1331 3031 1641 3031 
Q 1972 3031 2205 2925 
Q 2438 2819 2588 2639 
Q 2738 2459 2808 2217 
Q 2878 1975 2878 1700 
L 2878 1606 
z
M 2359 1759 
Q 2369 2166 2180 2397 
Q 1991 2628 1619 2628 
Q 1428 2628 1284 2556 
Q 1141 2484 1044 2365 
Q 947 2247 894 2089 
Q 841 1931 834 1759 
L 2359 1759 
z
" transform="scale(0.015625)"/>
      <path id="Calibri-6d" d="M 4650 78 
Q 4650 53 4637 36 
Q 4625 19 4597 6 
Q 4569 -6 4519 -12 
Q 4469 -19 4394 -19 
Q 4316 -19 4266 -12 
Q 4216 -6 4186 6 
Q 4156 19 4143 36 
Q 4131 53 4131 78 
L 4131 1788 
Q 4131 1966 4100 2112 
Q 4069 2259 4000 2365 
Q 3931 2472 3825 2528 
Q 3719 2584 3575 2584 
Q 3397 2584 3217 2446 
Q 3038 2309 2822 2044 
L 2822 78 
Q 2822 53 2809 36 
Q 2797 19 2767 6 
Q 2738 -6 2688 -12 
Q 2638 -19 2563 -19 
Q 2491 -19 2439 -12 
Q 2388 -6 2358 6 
Q 2328 19 2317 36 
Q 2306 53 2306 78 
L 2306 1788 
Q 2306 1966 2272 2112 
Q 2238 2259 2169 2365 
Q 2100 2472 1995 2528 
Q 1891 2584 1747 2584 
Q 1569 2584 1387 2446 
Q 1206 2309 994 2044 
L 994 78 
Q 994 53 981 36 
Q 969 19 941 6 
Q 913 -6 863 -12 
Q 813 -19 734 -19 
Q 659 -19 609 -12 
Q 559 -6 529 6 
Q 500 19 489 36 
Q 478 53 478 78 
L 478 2891 
Q 478 2916 487 2933 
Q 497 2950 525 2964 
Q 553 2978 597 2983 
Q 641 2988 713 2988 
Q 781 2988 826 2983 
Q 872 2978 897 2964 
Q 922 2950 933 2933 
Q 944 2916 944 2891 
L 944 2519 
Q 1181 2784 1404 2907 
Q 1628 3031 1856 3031 
Q 2031 3031 2170 2990 
Q 2309 2950 2415 2876 
Q 2522 2803 2597 2701 
Q 2672 2600 2722 2475 
Q 2863 2628 2989 2734 
Q 3116 2841 3233 2906 
Q 3350 2972 3461 3001 
Q 3572 3031 3684 3031 
Q 3956 3031 4140 2936 
Q 4325 2841 4439 2681 
Q 4553 2522 4601 2308 
Q 4650 2094 4650 1856 
L 4650 78 
z
" transform="scale(0.015625)"/>
      <path id="Calibri-28" d="M 1547 4306 
Q 1250 3678 1104 3017 
Q 959 2356 959 1688 
Q 959 1016 1107 356 
Q 1256 -303 1541 -938 
Q 1556 -975 1557 -1001 
Q 1559 -1028 1537 -1045 
Q 1516 -1063 1470 -1070 
Q 1425 -1078 1347 -1078 
Q 1291 -1078 1250 -1075 
Q 1209 -1072 1179 -1062 
Q 1150 -1053 1131 -1040 
Q 1113 -1028 1103 -1013 
Q 934 -694 806 -367 
Q 678 -41 590 296 
Q 503 634 459 979 
Q 416 1325 416 1678 
Q 416 2031 464 2375 
Q 513 2719 602 3058 
Q 691 3397 819 3725 
Q 947 4053 1106 4375 
Q 1109 4388 1123 4397 
Q 1138 4406 1163 4415 
Q 1188 4425 1231 4429 
Q 1275 4434 1344 4434 
Q 1416 4434 1459 4425 
Q 1503 4416 1528 4400 
Q 1553 4384 1556 4359 
Q 1559 4334 1547 4306 
z
" transform="scale(0.015625)"/>
      <path id="Calibri-43" d="M 3238 572 
Q 3238 522 3234 484 
Q 3231 447 3223 419 
Q 3216 391 3203 369 
Q 3191 347 3159 315 
Q 3128 284 3028 220 
Q 2928 156 2779 95 
Q 2631 34 2439 -8 
Q 2247 -50 2019 -50 
Q 1625 -50 1308 81 
Q 991 213 767 469 
Q 544 725 423 1101 
Q 303 1478 303 1969 
Q 303 2472 433 2865 
Q 563 3259 797 3532 
Q 1031 3806 1357 3950 
Q 1684 4094 2081 4094 
Q 2256 4094 2422 4061 
Q 2588 4028 2728 3978 
Q 2869 3928 2978 3862 
Q 3088 3797 3130 3755 
Q 3172 3713 3184 3691 
Q 3197 3669 3205 3639 
Q 3213 3609 3217 3568 
Q 3222 3528 3222 3472 
Q 3222 3409 3215 3365 
Q 3209 3322 3196 3292 
Q 3184 3263 3167 3248 
Q 3150 3234 3125 3234 
Q 3081 3234 3003 3295 
Q 2925 3356 2801 3429 
Q 2678 3503 2501 3564 
Q 2325 3625 2078 3625 
Q 1809 3625 1589 3517 
Q 1369 3409 1212 3200 
Q 1056 2991 970 2689 
Q 884 2388 884 2000 
Q 884 1616 967 1320 
Q 1050 1025 1204 826 
Q 1359 628 1584 526 
Q 1809 425 2094 425 
Q 2334 425 2514 484 
Q 2694 544 2820 617 
Q 2947 691 3028 750 
Q 3109 809 3156 809 
Q 3178 809 3193 800 
Q 3209 791 3218 764 
Q 3228 738 3233 691 
Q 3238 644 3238 572 
z
" transform="scale(0.015625)"/>
      <path id="Calibri-29" d="M 1522 1678 
Q 1522 1325 1478 979 
Q 1434 634 1346 296 
Q 1259 -41 1132 -367 
Q 1006 -694 838 -1013 
Q 828 -1028 809 -1040 
Q 791 -1053 761 -1062 
Q 731 -1072 690 -1075 
Q 650 -1078 594 -1078 
Q 513 -1078 467 -1070 
Q 422 -1063 401 -1045 
Q 381 -1028 382 -1001 
Q 384 -975 400 -938 
Q 688 -306 834 355 
Q 981 1016 981 1688 
Q 981 2356 834 3017 
Q 688 3678 394 4306 
Q 381 4334 384 4359 
Q 388 4384 413 4400 
Q 438 4416 481 4425 
Q 525 4434 597 4434 
Q 663 4434 706 4429 
Q 750 4425 776 4415 
Q 803 4406 815 4397 
Q 828 4388 834 4375 
Q 1156 3734 1339 3057 
Q 1522 2381 1522 1678 
z
" transform="scale(0.015625)"/>
     </defs>
     <use xlink:href="#Calibri-63"/>
     <use xlink:href="#Calibri-72" transform="translate(42.285156 0)"/>
     <use xlink:href="#Calibri-45" transform="translate(77.148438 0)"/>
     <use xlink:href="#Calibri-47" transform="translate(124.851562 0)"/>
     <use xlink:href="#Calibri-20" transform="translate(187.9375 0)"/>
     <use xlink:href="#Calibri-73" transform="translate(210.544922 0)"/>
     <use xlink:href="#Calibri-63" transform="translate(249.65625 0)"/>
     <use xlink:href="#Calibri-68" transform="translate(291.941406 0)"/>
     <use xlink:href="#Calibri-65" transform="translate(344.480469 0)"/>
     <use xlink:href="#Calibri-6d" transform="translate(394.236328 0)"/>
     <use xlink:href="#Calibri-65" transform="translate(474.119141 0)"/>
     <use xlink:href="#Calibri-20" transform="translate(523.875 0)"/>
     <use xlink:href="#Calibri-28" transform="translate(546.482422 0)"/>
     <use xlink:href="#Calibri-43" transform="translate(576.804688 0)"/>
     <use xlink:href="#Calibri-29" transform="translate(630.125 0)"/>
    </g>
   </g>
  </g>
  <g id="axes_5">
   <g id="LineCollection_8">
    <path d="M 658.090042 810.654079 
L 743.667154 910.439063 
" clip-path="url(#pe0afd3da26)" style="fill: none; stroke: #000000; stroke-width: 3"/>
    <path d="M 658.090042 810.654079 
L 793.776834 1065.066551 
" clip-path="url(#pe0afd3da26)" style="fill: none; stroke: #000000; stroke-width: 3"/>
    <path d="M 1059.708703 896.68001 
L 752.444694 764.447266 
" clip-path="url(#pe0afd3da26)" style="fill: none; stroke: #000000; stroke-width: 3"/>
    <path d="M 847.30602 1062.887677 
L 891.592552 750.003117 
" clip-path="url(#pe0afd3da26)" style="fill: none; stroke: #000000; stroke-width: 3"/>
    <path d="M 926.637942 802.166237 
L 719.145664 927.4568 
" clip-path="url(#pe0afd3da26)" style="fill: none; stroke: #000000; stroke-width: 3"/>
    <path d="M 793.776834 1065.066551 
L 726.680918 893.11885 
" clip-path="url(#pe0afd3da26)" style="fill: none; stroke: #000000; stroke-width: 3"/>
    <path d="M 752.444694 764.447266 
L 1038.870845 1079.689255 
" clip-path="url(#pe0afd3da26)" style="fill: none; stroke: #000000; stroke-width: 3"/>
    <path d="M 719.145664 927.4568 
L 1038.870845 1079.689255 
" clip-path="url(#pe0afd3da26)" style="fill: none; stroke: #000000; stroke-width: 3"/>
    <path d="M 891.592552 750.003117 
L 726.680918 893.11885 
" clip-path="url(#pe0afd3da26)" style="fill: none; stroke: #000000; stroke-width: 3"/>
   </g>
   <g id="LineCollection_9">
    <path d="M 658.090042 810.654079 
L 752.444694 764.447266 
" clip-path="url(#pe0afd3da26)" style="fill: none; stroke: #008000; stroke-width: 3"/>
    <path d="M 658.090042 810.654079 
L 726.680918 893.11885 
" clip-path="url(#pe0afd3da26)" style="fill: none; stroke: #008000; stroke-width: 3"/>
    <path d="M 819.373758 830.770139 
L 743.667154 910.439063 
" clip-path="url(#pe0afd3da26)" style="fill: none; stroke: #008000; stroke-width: 3"/>
    <path d="M 819.373758 830.770139 
L 752.444694 764.447266 
" clip-path="url(#pe0afd3da26)" style="fill: none; stroke: #008000; stroke-width: 3"/>
    <path d="M 819.373758 830.770139 
L 891.592552 750.003117 
" clip-path="url(#pe0afd3da26)" style="fill: none; stroke: #008000; stroke-width: 3"/>
    <path d="M 1059.708703 896.68001 
L 926.637942 802.166237 
" clip-path="url(#pe0afd3da26)" style="fill: none; stroke: #008000; stroke-width: 3"/>
    <path d="M 1059.708703 896.68001 
L 1038.870845 1079.689255 
" clip-path="url(#pe0afd3da26)" style="fill: none; stroke: #008000; stroke-width: 3"/>
    <path d="M 847.30602 1062.887677 
L 793.776834 1065.066551 
" clip-path="url(#pe0afd3da26)" style="fill: none; stroke: #008000; stroke-width: 3"/>
    <path d="M 847.30602 1062.887677 
L 1038.870845 1079.689255 
" clip-path="url(#pe0afd3da26)" style="fill: none; stroke: #008000; stroke-width: 3"/>
    <path d="M 743.667154 910.439063 
L 719.145664 927.4568 
" clip-path="url(#pe0afd3da26)" style="fill: none; stroke: #008000; stroke-width: 3"/>
    <path d="M 743.667154 910.439063 
L 726.680918 893.11885 
" clip-path="url(#pe0afd3da26)" style="fill: none; stroke: #008000; stroke-width: 3"/>
    <path d="M 926.637942 802.166237 
L 891.592552 750.003117 
" clip-path="url(#pe0afd3da26)" style="fill: none; stroke: #008000; stroke-width: 3"/>
    <path d="M 793.776834 1065.066551 
L 719.145664 927.4568 
" clip-path="url(#pe0afd3da26)" style="fill: none; stroke: #008000; stroke-width: 3"/>
   </g>
   <g id="LineCollection_10">
    <path d="M 819.373758 830.770139 
L 926.637942 802.166237 
" clip-path="url(#pe0afd3da26)" style="fill: none; stroke: #0000ff; stroke-width: 3"/>
    <path d="M 1059.708703 896.68001 
L 847.30602 1062.887677 
" clip-path="url(#pe0afd3da26)" style="fill: none; stroke: #0000ff; stroke-width: 3"/>
   </g>
   <g id="PathCollection_5">
    <defs>
     <path id="C4_0_811cd96758" d="M 0 8.660254 
C 2.296726 8.660254 4.499694 7.747755 6.123724 6.123724 
C 7.747755 4.499694 8.660254 2.296726 8.660254 -0 
C 8.660254 -2.296726 7.747755 -4.499694 6.123724 -6.123724 
C 4.499694 -7.747755 2.296726 -8.660254 0 -8.660254 
C -2.296726 -8.660254 -4.499694 -7.747755 -6.123724 -6.123724 
C -7.747755 -4.499694 -8.660254 -2.296726 -8.660254 0 
C -8.660254 2.296726 -7.747755 4.499694 -6.123724 6.123724 
C -4.499694 7.747755 -2.296726 8.660254 0 8.660254 
z
"/>
    </defs>
    <g clip-path="url(#pe0afd3da26)">
     <use xlink:href="#C4_0_811cd96758" x="658.090042" y="810.654079" style="fill: #ffe599; stroke: #000000; stroke-width: 3"/>
    </g>
    <g clip-path="url(#pe0afd3da26)">
     <use xlink:href="#C4_0_811cd96758" x="819.373758" y="830.770139" style="fill: #ffe599; stroke: #000000; stroke-width: 3"/>
    </g>
    <g clip-path="url(#pe0afd3da26)">
     <use xlink:href="#C4_0_811cd96758" x="1059.708703" y="896.68001" style="fill: #ffe599; stroke: #000000; stroke-width: 3"/>
    </g>
    <g clip-path="url(#pe0afd3da26)">
     <use xlink:href="#C4_0_811cd96758" x="847.30602" y="1062.887677" style="fill: #ffe599; stroke: #000000; stroke-width: 3"/>
    </g>
    <g clip-path="url(#pe0afd3da26)">
     <use xlink:href="#C4_0_811cd96758" x="743.667154" y="910.439063" style="fill: #ffe599; stroke: #000000; stroke-width: 3"/>
    </g>
    <g clip-path="url(#pe0afd3da26)">
     <use xlink:href="#C4_0_811cd96758" x="926.637942" y="802.166237" style="fill: #ffe599; stroke: #000000; stroke-width: 3"/>
    </g>
    <g clip-path="url(#pe0afd3da26)">
     <use xlink:href="#C4_0_811cd96758" x="793.776834" y="1065.066551" style="fill: #ffe599; stroke: #000000; stroke-width: 3"/>
    </g>
    <g clip-path="url(#pe0afd3da26)">
     <use xlink:href="#C4_0_811cd96758" x="752.444694" y="764.447266" style="fill: #ffe599; stroke: #000000; stroke-width: 3"/>
    </g>
    <g clip-path="url(#pe0afd3da26)">
     <use xlink:href="#C4_0_811cd96758" x="719.145664" y="927.4568" style="fill: #ffe599; stroke: #000000; stroke-width: 3"/>
    </g>
    <g clip-path="url(#pe0afd3da26)">
     <use xlink:href="#C4_0_811cd96758" x="1038.870845" y="1079.689255" style="fill: #ffe599; stroke: #000000; stroke-width: 3"/>
    </g>
    <g clip-path="url(#pe0afd3da26)">
     <use xlink:href="#C4_0_811cd96758" x="891.592552" y="750.003117" style="fill: #ffe599; stroke: #000000; stroke-width: 3"/>
    </g>
    <g clip-path="url(#pe0afd3da26)">
     <use xlink:href="#C4_0_811cd96758" x="726.680918" y="893.11885" style="fill: #ffe599; stroke: #000000; stroke-width: 3"/>
    </g>
   </g>
   <g id="patch_36">
    <path d="M 625.960549 1171.078892 
L 1091.838196 1171.078892 
Q 1115.132078 1171.078892 1115.132078 1147.78501 
L 1115.132078 681.907362 
Q 1115.132078 658.61348 1091.838196 658.61348 
L 625.960549 658.61348 
Q 602.666667 658.61348 602.666667 681.907362 
L 602.666667 1147.78501 
Q 602.666667 1171.078892 625.960549 1171.078892 
L 625.960549 1171.078892 
z
" style="fill: none; stroke: #000000; stroke-width: 4.5"/>
   </g>
   <g id="text_5">
    <!-- crEG scheme (D) -->
    <g transform="translate(718.478279 638.637151) scale(0.42 -0.42)">
     <use xlink:href="#Calibri-63"/>
     <use xlink:href="#Calibri-72" transform="translate(42.285156 0)"/>
     <use xlink:href="#Calibri-45" transform="translate(77.148438 0)"/>
     <use xlink:href="#Calibri-47" transform="translate(124.851562 0)"/>
     <use xlink:href="#Calibri-20" transform="translate(187.9375 0)"/>
     <use xlink:href="#Calibri-73" transform="translate(210.544922 0)"/>
     <use xlink:href="#Calibri-63" transform="translate(249.65625 0)"/>
     <use xlink:href="#Calibri-68" transform="translate(291.941406 0)"/>
     <use xlink:href="#Calibri-65" transform="translate(344.480469 0)"/>
     <use xlink:href="#Calibri-6d" transform="translate(394.236328 0)"/>
     <use xlink:href="#Calibri-65" transform="translate(474.119141 0)"/>
     <use xlink:href="#Calibri-20" transform="translate(523.875 0)"/>
     <use xlink:href="#Calibri-28" transform="translate(546.482422 0)"/>
     <use xlink:href="#Calibri-44" transform="translate(576.804688 0)"/>
     <use xlink:href="#Calibri-29" transform="translate(638.328125 0)"/>
    </g>
   </g>
  </g>
  <g id="axes_6"/>
 </g>
 <defs>
  <clipPath id="p0c850dc351">
   <rect x="30.493882" y="79.036774" width="465.877647" height="465.877647"/>
  </clipPath>
  <clipPath id="p04d69c98d0">
   <rect x="625.960549" y="79.036774" width="465.877647" height="465.877647"/>
  </clipPath>
  <clipPath id="p4adaade489">
   <rect x="1221.427216" y="79.036774" width="465.877647" height="465.877647"/>
  </clipPath>
  <clipPath id="p4cefdbdc45">
   <rect x="30.493882" y="681.907362" width="465.877647" height="465.877647"/>
  </clipPath>
  <clipPath id="pe0afd3da26">
   <rect x="625.960549" y="681.907362" width="465.877647" height="465.877647"/>
  </clipPath>
 </defs>
</svg>
